<svg xmlns="http://www.w3.org/2000/svg" fill="#666"><path d="M798.94 188.28h-3.24l-2.28-.3-1.5 1.74-1.26.42-.9.78-1.56-1.26-.6-3.24-.96-.18v-1.2l-1.92-.9-1.02 1.38.12 1.56-.36.54-1.92-.06-.54 1.8-1.26-.78-1.98 1.26-1.08-.48-2.58-.84h-1.74l-.96-.12-1.74-1.02-.18 1.38-2.46.72.06 3.12-1.5 1.2-2.4.54-.24 1.8-2.34.48-3.54-1.44-.3 4.8-.3 2.82 1.5.54-.96 2.1 1.62 3.06.66 2.4 2.58.66.66 2.4-2.34 3.48 5.76 1.92 3.18-.54 1.98.48.54-.84 2.28.3 3.96-1.56-.48-3.24 1.38-2.16h2.4l.12-1.02 2.4-.54 1.26.36 1.02-1.08-.66-2.28.9-2.28 1.8-.96-1.8-2.52 3.06.12.54-1.38-.48-1.5 1.2-1.62-.84-1.92-1.14-1.68 1.44-1.68 3.18-.78 3.48-.48 1.44-.72 1.68-.42-.84-1.14zM623.5 168.3l-1.2 1.86.3 1.14.6.6-.3 1.14-.06 2.58.42 1.8 1.8 1.26.12.84.6.24 1.26-1.8.06-1.26.96-.54v-.96l-1.38-.96-.54-1.56.24-1.26-.3-1.38-.78-.36-.78-.96-.78.3-.24-.72zm-33.9 21.84l-2.16.24-1.32-.9h-3.36l-2.94 1.56-1.62-.6-5.22.3-5.34.72-3 1.2-2.04 1.56-3.42.72-3.06 2.1 1.2 2.46.18 2.34 1.08 4.02.84.84-.6 1.5-4.2.6-1.5 1.44-1.86.3-.18 2.82-3.78 1.5-1.26 1.92-2.64 1.02-3.24.6-5.34 2.82-.06 4.5v.24l-.06.72 12.18 9.3 11.04 8.34 11.16 8.28.78 1.8 2.04 1.08 1.56.66.06 2.4 3.66-.36 4.68-1.68 9.48-7.5 11.16-7.32-1.5-2.4-2.58-1.74-1.56.72-1.2-2.16-.12-1.62-2.04-2.82 1.26-1.56-.3-2.4.36-2.1-.3-1.74.54-3.12-.24-1.8-1.14-3.36-1.56-6.78-2.04-1.56v-.9l-2.7-2.28-.36-2.88 1.92-2.16.66-3.18-.6-3.72.6-1.98zm-21.36-21.12l.12-.24v-.06l-.12-.06-.42-.12-.18-.06-.12.06-.12.12-.06.18.06.06v.24l.06.12h.24l.18-.06.3-.18h.06zm49.74 184.74l-9.96-.06-1.14.42-1.02-.06-1.38.54-.3.72 1.68 2.4.66 2.58.96 3.66-1.02 1.56-.18.78.78 2.28.9 2.34.96 1.32.18 2.16-.42 2.88-1.08 1.68-1.98 2.52-.78 1.56-1.14 3.42-.18 1.62-1.2 3.54-.54 3.3.3 2.4 1.62-.72 1.98-.6 2.16.06 1.92 1.74.54-.24 13.5-.18 2.22 1.8 8.04.54 6.18-1.5-2.1-2.4-2.16-3.12.48-12.18 6.96.06-.3-1.32.54-1.44-.54-1.8.42-1.8-.3-1.2-1.56-.24-2.1.6-1.44-.12-.84.36.3-4.56-1.14-1.38-.18-2.4.54-2.28-.72-1.44v-2.4h-4.08l.3-1.38h-1.74l-.18.66-2.04.18-.9 2.22-.54.96-1.8-.54-1.14.54-2.22.3-1.26-1.98-.78-1.26-.96-2.28-.78-2.82zm-13.08-.78l.12-1.62.54-1.02 1.2-.78-1.2-1.32-1.08.66-1.32 1.62.84 2.88.9-.42zm-251.16-91.26l.06-.12-.12-.06-.48.3v.06l.54-.18zm3.84 4.56l.12-.06v-.18l-.06-.06-.06-.12-.24-.12-.3.3v.12l.06.18.36.06.12-.12zm.12-2.1v-.3l-.06-.12h-.18l-.06-.06h-.06l-.06.06.06.36.3.18.06-.12zm350.7-81.12l-.54-2.64-1.5-.66-1.5-1.02.6-1.2-1.86-1.32.42-.9-1.32-.66-.84-1.02-4.14.6.78 1.32v1.86l2.52.9 1.44 1.14.6-.12 1.08 1.02h1.38l.12.6 1.68 2.22 1.08-.12z"/><path d="M328.96 283.74l-.06-.06-.18-.36-.18-.18-.06.06-.06.18.18.18.18.24.18.06v-.12zM613.12 146.4l-1.38-.72-1.38.18-2.4-1.14-1.02.3-1.56 1.5-2.28-1.2-.9 1.74-1.02.48.6 2.4-.24.66-1.02-.78-1.44-.12-2.04.72-2.64-.18-.36.96-1.56-1.02-.9.18.12.66-.42.96 1.38.66 1.56.12 1.86.54.3-.72 2.88-.66.78 1.32 4.32.96 2.52.24 1.44-.84 2.58-.06.54-.66.78-2.4-.66-.78h1.68l.12-1.56-.42-1.26.18-.48zm89.94 32.94l-.6.12.72 1.44 1.92 1.74 2.22.54-1.68-2.22-.12-.6h-1.38l-1.08-1.02zm6.24-5.58l-2.58-2.28-.9-.12-.66.54 1.92 2.04-.36.42-1.68-.24-2.52-1.08-.66.6.84 1.02 1.32.66-.42.9 1.86 1.32-.6 1.2 1.5 1.02 1.5.66.54 2.64 3.18-2.82 1.14-.3 1.14 1.14-.72 1.86 2.28 2.04.78-.18-.48-1.92 1.02-.9.24-1.32-.06-3 2.52-.3-1.2-1.02-1.5-.12-2.1-2.7-2.04-1.92-1.56 1.5-.3.9-1.44-.24zm-387.66 76.62l.12-.36-.18-.06-.3.42-.36.18h-.18l-.42-.18h-.3l-.24.3-.36.06.06.06v.12l-.12.18v.12l.06.18.9-.06.78-.12.42-.54.12-.3zm.48-1.2l-.24-.18-.24.18.06.18.42-.18zm0-3.48l-.24-.12-.18.3.18.06.42-.06.3.06.3.24.18-.12-.06-.06-.24-.18-.36-.06h-.12l-.18-.06zm-3.96.78l.42-.36.42-.18.54-.66-.06-.54.12-.24-.36.06-.12.36.18.24v.12l-.12.24-.18.06-.06.12-.18.06-.24.3-.48.36-.12.18.24-.12zm.72-1.92l-.36-.12-.12-.24-.24-.06-.06.12v.12l.06.24.12-.06.48.24.24-.18-.12-.06zm-2.46-.66v-.42l-.24-.3-.36-.24-.06-.72-.18-.42-.12-.36-.24-.48v.3l.06.06.06.36.24.54.06.24-.06.24-.24.06-.06.12.3.18.48.18.3.78.06-.12zm-2.46-2.1l-.3-.18-.12-.18-.42-.42-.18-.06-.12.24.24.06.54.42.24.12h.12zm4.38-2.4l-.06-.18h-.06l-.18.06-.18.54h.18l.3-.42zm-10.56-.66l-.12-.18-.18.12h-.3l-.12.06h-.24l-.18.12.24.48.18.18.06.6.12.06-.06.42.66.06.24-.48v-1.02l-.18-.3-.24.36-.24-.18.36-.24v-.06zm7.74.18l-.6-.84v-.12l-.3-.9-.18-.06-.06.06-.06.12.24.24v.24l.18.12.24.66.24.24-.06.18-.24.18-.06.12h.06l.36-.06h.24v-.18zm-6.3-3.12l.3-.12-.18-.12h-.42l-.24.06-.12.12.06.06.24.06.36-.06zm-1.44 1.2l-.3-.36-.18-.54-.12-.24.06-.3-.18-.24-.36-.24-.18.06.06.66-.12.36-.48.66.06.24.06.12-.3.24v-.18l-.36.06.18.3.36.24.18.06.18-.12v.3l.18.24.06.24.18-.18.36-.12.12-.12.42-.24v-.12l.06-.36.06-.42zm4.02-3l-.18-.3-.06.06-.06.24-.18.24.3-.06.24.06.36.3.42.12.18.36.36.36v.36l-.24.36-.06.42-.36.06.24.24.06.24.12.12v-.42l.18-.48.24-.78-.06-.18-.18-.18-.42-.54-.42-.18-.48-.42zm-5.28-4.74l-.3-.24-.12.24v.06l-.06.18-.3.24-.3.06-.42-.36-.12-.06.48.66.18.06h.24l.54-.18.96-.3 1.02-.12.06-.12-.06-.18-.48.12-.6-.06-.12.12h-.24l-.36-.12zm3.66 3.12l.12-.18.24-1.08.48-.36.06-.72-.3-.3-.24-.12-.06-.12.06-.12-.12-.06-.18-.12-.24-.36-.24-.24-.42-.06-.36-.06-.24-.06-.3.18h.48l.9.18.42.9.3.24.06.24-.12.24v.24l-.18.3-.06.48-.18.24-.42.3.24.12.18.36.12-.06zm558.72 14.76l-2.7-6.06-.9.06-.12 2.4-2.1-1.98.66-2.16 1.44-.24.96-3.18-2.04-.66-3 .06-3.24-.54-.72-2.64-1.62-.24-2.88-1.62-.72 2.58 2.76 2.04-1.86 1.44-.48 1.38 2.22 1.02-.24 2.28 1.56 2.88.96 3.12 1.32.36 1.02.42.36-.72 1.5.78.78-2.1-.54-1.56 3.06.12 1.68 2.22.9 1.86.48 1.92 1.2 1.98-.66-3.06 1.26.6-.3-2.76zm-504.96 34.2l.24-.24-.18-.18-.36-.48-.18.06v.6l.06.18.3.18.12-.12zm280.74-161.7l-3.12-.9-2.76 1.38-1.56.6.54 1.56-2.1 1.2-.3 2.04-2.88 1.32h-2.76l.36 1.62 1.02 1.38.18 1.44-1.62.72 1.14 1.74.3 1.62 1.32-.18 1.44-.96 2.22-.12 3 .3 3.36.9 2.28.06 1.2.54.96-.66.9.9 2.58-.18 1.2.36-.12-1.86.72-.84 2.46-.18-1.2-2.34-.9-1.2.48-.36 2.34.12.96-.78-1.02-.96-2.04-.66.06-.66-1.32-.66-2.22-2.34.36-.96-.6-1.74-2.88-.84-1.38.42-.6-.84zm-67.26 16.08l-2.64.78-2.16-.3-2.28.72.42 1.32 1.32.06 1.44 1.44 2.04 1.74 1.5-.24 2.64 1.68.24-2.1.78-.12.24-2.52-1.68-.84-1.86-1.62zM266.5 270.66l.84-1.32.6-.12.78-1.02.6-1.92-.18-.36.54-1.38-.24-.6.78-1.62.18-1.08h-.66l.06-.54h-.6l-1.5 2.34-.54-.48-.42.18-.06.6-.42 3-.72 4.32h.96zm308.64 16.14l-2.58-2.22h-1.2l-1.14 1.14-.72 1.14-1.62.36-.72 1.68-1.14.42-.42 1.98 1.02 1.14 1.2 1.38.12 1.86.66.78-.12 8.76.84 2.64 2.76-.48.18-6.12-.06-2.46.6-2.4 1.02-1.14 1.62-2.4-.36-1.02.66-1.5-.72-2.28.12-1.26zm-220.02-78.72l.24-.36h-.06l-.3.3-.36.12.06.06h.06l.36-.12zm506.7 17.22l-1.62-1.08-1.74-.06-2.52-.9-1.56.96-1.56 2.88.18.72 3.3 1.5 1.92-.6 2.82.24 2.64-.12-.24-2.34-1.62-1.2zm-247.5-66.36l-1.38.06-.6.78-1.14-.84-.54 1.5 1.62 1.74.78 1.14 1.5 1.38 1.2.84 1.32 1.5 2.82 1.44.24-2.04.9-.84.54-.36.72-.18.3-1.74-1.62-1.38.6-1.62h-1.08l-1.44-.84-2.1.06-2.64-.6zM647.02 399l-.6-.3-1.92.9h-.96l-2.22 1.5-1.2-1.56-5.16 1.32-2.46.12-.54 13.62-3.24.12-.36 11.1.84.6 1.8 3.66-.42 2.28.66 1.38 2.4-.42 1.68-1.68 1.62-1.14.9-1.86 1.62-.9 1.38.48 1.5 1.08 2.64.18 2.16-.9.36-1.2.72-1.8 1.8-.3 1.02-1.44 1.2-2.58 3.12-2.82 4.8-2.82-2.04-1.74-2.52-.54-.9-2.46.06-1.32-1.38-.42-3.6-4.2-.96-2.22-.66-.66-1.14-3.06zm-298.5-137.94l.18-.12-.12-.06h-.24l-.18.12.06.06h.3zm.66-.24l.24-.24-.3.06-.12.12.06.06h.12zm.48-1.08h-.42l.06.06h.18l.18.06v-.12zm598.02 54.3l1.62 1.98.66-1.32 1.62.12.06-2.46.06-1.86-2.76 2.1-1.26 1.44z"/><path d="M649.96 164.58l-1.8-.42-2.4-1.32-3.48.84-1.38.96-4.5-.18-2.4-.6-1.14.3-1.08-1.56-.66.84.42 1.38 1.68 1.56-1.02 1.14-.42 1.2.36.42-.42.54 1.68 1.2.48 2.46 2.28.12 2.34-1.02 2.34 1.26 2.76-.36-.18-1.8 3-1.2 2.7.48-1.26-2.1.78-2.64 1.32-1.5zm-85.68 109.74h-2.16l-.84-.72-1.8.54-3.12 1.56-.66 1.2-2.58 1.74-.48.96-1.38.78-1.62-.54-.96.96-.48 2.64-2.7 3.12.12 1.32-.96 1.62.24 2.22 1.5.84.6 1.26 1.5.78 1.14-.96 1.62-.12 2.28.96-.48-2.88.12-2.16 5.82-.18 1.44.3 1.08-.6 1.56.3 2.94.06 1.14-.42.72-1.68 1.62-.36.72-1.14.06-2.64-3.84-.84-.12-1.86-1.86-2.46-.48-1.74.3-1.86zM665.92 342l-.18-1.5-1.8-.24-1.02 2.16-2.1-.3.84 1.74.06.66 1.2 3.66-.06.18.36-.06 1.26-1.38 1.32-1.98.84-.84v-1.2l-.72-.9zm255.96-64.92l-3.12-1.38-1.2 2.58-2.94-1.44-3.18-.6-4.26.78-1.8 3.12 1.26 4.62 2.04 3.96 1.56 1.98 2.82.54 2.82-1.5 3.48-.3-1.68-2.28 5.34-2.94-.06-4.62-1.08-2.52zm-308.82 12.66l.12-2.58-.3-2.52-1.32-2.46-.96.24-.12 1.2 1.38 1.56-.36.66-.18 1.26-2.76 3-.9 2.4-.42 1.98-.72.84-.66 2.7-1.8 1.56-.48 1.92-.72 1.56-.3 1.56-2.34 1.32-1.92-1.56-1.26.06-1.98 2.22-.96.06-1.62 3.66-.84 2.7v1.08l.84.54.66 1.68 1.56.66 1.32 2.52-.48 3 5.52.12 1.56-.24 2.04.48 2.04-.48.42.18 4.26.18 2.7 1.02 2.7.9.24-2.1-.36-1.08-.18-1.74-1.56-1.26-1.26-1.92-.3-1.38-1.56-1.98.24-1.14-.36-1.62.24-3 .84-.66 1.62-3.9.54-1.02-1.08-2.64-.48-1.56-1.5-.66-1.98-2.22.72-1.8 1.5.36.96-.24 1.86.06-1.86-3.48zM372.4 154.02l-.42-1.8-1.5 1.14.3 1.26 3.36 1.56 1.14-.24 1.98-1.5-2.82.06-2.04-.48zm8.64-9.54l.12-.66-2.46-1.56-3.54-.96-1.14.36 2.1 1.74 3.42 1.14 1.5-.06zm-183.18 2.22l.12-2.04-1.92-1.56-.24-1.74-.06-1.26-2.46-.42-1.44-.54-2.46-.84-.84.9-.36 1.98 2.58.66-.24 1.08 1.74 1.32v1.32l3.78 1.68 1.8-.54zm201.66-8.1l2.34-2.28.84-1.02-1.26-.18-2.94 1.32-2.52 2.1-4.86 5.88-3.18 2.22.96 1.02-2.28 1.32.12 1.14 5.76.06 3.24-.18 2.64.9-2.64 1.74 1.74.12 4.38-3.24.72.48-1.5 3.06 1.8.72 1.38-.12 2.1-3.3-.3-2.34.18-1.98-2.22.66 1.68-2.76-2.58-1.14-1.62.9-2.34-1.02 1.44-1.26-1.74-.78-2.28 1.2 2.94-3.24zm-214.08-12.72l-1.14 1.2-.84 1.56.54 1.14-.36 1.68.42 1.68h1.14l-.12-2.94 4.26-4.14-2.94.3-.96-.48zm168.54-28.2l-.24-.72-1.02-.06-1.68 1.02-.24.24.06 1.02 1.02.3 2.1-1.8zm-5.76-1.92l.48-.66-3.6-.06-2.94 1.62v.9l1.8.12 4.26-1.92zm-1.86-9.96l-1.62-.3-3 3.12-2.16 2.64-3.42 1.68 3.78-.36-.48 2.04 4.92-1.8 3.72-1.8.48 1.56 3.54.78 2.94-1.08-1.14-1.08-2.04.24.78-1.62-2.22-1.02-2.04-1.14-.9-.9-1.68.54.54-1.5zm26.76-4.92l2.22-1.02.6-.42.84-1.38-1.38-.9-2.52.42-2.28 1.86-.42 1.56 2.94-.12zm-44.28-6.42l-.48-1.2-.18-.6-.96-.6-1.8-.9-2.94 1.38-3 1.02 2.1 1.44 2.28-.36 2.46.96 2.52-1.14zm13.44-1.26l-3.96-.6 3.42-1.56-.24-3.6-1.14-1.38-2.7-.48-4.86 2.28-3.3 3.48 1.74 1.26.96 1.98-3.78 3.3-1.92-.12-3.72 2.64 2.52-3.12-2.88-1.08-2.7.54-1.44 2.04-3.54-.06-4.32.48-3.06-1.44-3 .24-.9-1.74-1.26-.78-2.28.3-3.12.18-2.64 1.08 1.2 1.38-4.2 1.68-.84-1.98-2.64.6-7.08.36-3.84-.72 5.1-1.56-1.68-1.68-2.64.24-2.82-.6-4.5-1.14-2.28-1.38-2.7-.18-1.98.96-3.54.54 2.34-2.46-5.64 2.16-.84-2.82-1.26-.36-2.28 1.5-2.7.72-.12-1.32-4.92.84-5.28 1.38-3.12-.36-4.2.96-3.72 1.38-2.22-.3-1.98-1.56-3.54-.78-14.58 12.12-21.24 19.44 2.52.06 1.62.96.36 1.56.12 2.34 4.56-1.98 3.84-1.14-.3 1.8.42 1.44 1.02 1.62-.66 2.52-.9 4.08 2.76 2.28-1.86 2.22-3.06 1.74-1.5 1.86 1.26 2.64-1.86 2.94 2.46 1.56-2.16 2.22-.78 3.3 4.14 1.5.96 1.62 3.24 3.66h81.96l.78-1.44h.96l-.48 2.04.6.6 1.92.24 2.76.6 2.28 1.14 2.64-.48 3.18.96 1.92-1.44 1.92-.6 1.08-.9.9-.48 2.4.72 1.98.12.48.48.06 2.1 3.12.6-1.02 1.02.72 1.14-1.14 1.38 1.08.48-1.14 1.26.72.12.78-.54.3.84 2.04.42 2.28.06 2.28.36 2.4.72.48 1.2.84 2.82-1.44 1.2-2.28-.48-.6-2.28-.54 2.34-2.28 2.04-.48 1.74-.66 1.02-2.46 1.2-2.22 2.04-1.2 1.32 1.62.24 2.7-1.2 1.74-1.02.96-.18 1.56.36 1.02-.54 1.68-.48 2.82-.48.18-1.08-.18.06-1.02.18-1.08-.36 1.38-1.26 1.14-.42 2.34-.54 2.76-.54 1.08.72 1.14-.84 1.14-.48.54.24.06.06 4.02-2.52 1.62-.72h10.2l.6-.96 1.02-.18 1.5-.54 1.62-1.68 1.92-2.94 3.3-2.82.66 1.02 2.22-.66.9 1.08-1.68 5.1 1.26 2.1 3.54-.48 4.86-.12-6.24 3.06-.9 3.12 2.22.3 4.26-2.7 3.48-1.44 7.32-2.22 4.5-2.46-1.56-1.32.6-2.7-4.26 4.2-5.16.48-3.3-1.86-.06-2.76.36-4.08 3.66-2.46-1.98-1.86-4.56.36-7.26 3.12-6.54 4.92-2.76.6 4.68-3.42 6.06-4.98 4.32-1.62 3.42-2.64 3.12-.3 4.38.06 6 .78 5.16-.6 4.68-3.06 5.22-1.32 2.52-1.26 2.52-1.38 1.2-4.08-.66-1.38-2.04-.48v-3.06l-1.38-1.14-4.14-.96-1.68-2.04-2.88-2.04 2.04-2.22-1.2-4.26-1.56-4.5-.6-3.12-2.58 1.62-4.44 3.9-4.86 1.92-.96-2.04-2.22-.6 1.32-4.38 1.56-2.94-4.62-.3-.06-1.32-2.16-1.98-1.8-1.2-2.7.9-2.52-.3-3.96-.96-2.34.78-2.28 5.4-.6 3.18-5.28 3.66 1.86 2.7.3 3-1.02 2.4-2.82 2.46-4.5 2.52-5.4 1.68 1.02 1.92-1.32 5.76-3.36 3.78-2.76 1.14-2.64-3.48-.06-4.08 1.02-3.6 2.16-3.12-2.88-.36-4.5-.24-2.16-1.5-2.88-.96-1.02-1.74-1.98-1.32-4.2-1.56-4.26.72.42-2.7.9-3.3-3.6-.6 2.94-4.08 2.94-2.76 5.64-3.9 5.16-2.76 3.36-.42 1.74-2.22 3.06-1.44 3.84-.24 4.62-2.28 1.74-1.44 4.44-2.82 1.92-1.68 1.92 1.02 3.9-.54L359.2 81l1.38-1.62-.48-1.74 3-1.74 1.02-1.62-2.1-1.56-3.24-.48-3.3-.24-2.76 3.54-3.9 2.76-4.32 2.4-.78-2.22 2.52-2.4-1.32-2.1-5.22 2.52 2.58-3.3zm-45.3-11.34l-1.68-.6-8.46 1.92-3.06 1.2-4.68 2.34 3.24.84 3.72-.06-6.9 1.26v1.14l3.36.06 5.4-.24 3.9.72-3.72.6-3.3-.18-4.26.54-1.98.36.36 2.52 2.52-.36 2.46.9-.18 1.5 4.68-.3 6.72-.48 5.64-1.08 3-.24 3.42.9 4.02.48 1.86-1.14-.42-1.26 4.2-.24 1.56-1.44-3-1.5-2.52-1.56 1.44-2.16 1.62-3.06-1.32-1.2-1.8-.54-2.52.48-1.68 3.18-2.58 1.26 1.32-3.06-1.02-1.02-4.38 1.62-1.56-1.56-6.24.9 2.82-1.44zm23.46-.9l-1.02-.66-3.24.12-1.26.42 1.32 2.16 4.2-2.04zm64.62.96l-2.64-1.68-5.04-.3-1.26.18-1.02 1.08 1.2 1.68.54.18 2.88-.42 4.92.12.42-.84zm-23.64-.18l3.42-1.92-6.72.78-3.48 1.26-4.26 2.76-1.98 3.12 3.36.06-3.66 1.38 1.08 1.14 3.54.48 4.38.9 8.28.72 4.74-.36 1.92-.96 1.2 1.08 1.98.18 1.2 1.98-2.1.84 4.26 1.08 2.76 1.56.3 1.14-.24 1.44-5.16 3.24-1.92 1.62.12 1.2-5.52.42-4.8.06-3.24 2.52 1.44 1.14 7.8-.54.54-.96 2.82 1.62 2.82 1.74-1.44.96 2.28 1.68 4.56 1.98 6.42 1.38.18-1.2-1.68-2.1-2.1-2.94 5.1 2.76 2.82.9 2.16-2.46v-3.36l-.6-.9-2.64-1.5-1.62-1.98 1.38-1.92 3.48-.42 2.28 3.24 2.4 1.44 6.42-3.9 1.98-2.34-3.84-.18-1.92-3.06-3.54-.72-4.62-2.1 5.4-1.5-.48-3-1.32-1.26-4.98-1.26-1.14-1.98-4.92.72.66-1.38-2.16-1.5-4.08-1.56-3.12 1.26-5.4.9 1.98-2.04-1.38-3.18-6.96 1.26-4.26 2.46-.18-1.92zm-30-2.04l-4.26 1.44.54 2.04-4.44-.42-1.02 1.02 3.48 2.34.54 1.2 2.04.3 5.04-1.2 3.06-2.82-2.28-1.32 3.6-1.44.3-.9-4.5.36-2.1-.6zm13.38 3.24l3.36-.6 6-2.7-3.66-.72-4.68-.12-3.12.84-2.52 1.26-1.5 1.56-1.08 2.7 2.58.12 4.62-2.34zm-68.82 4.32l1.56-1.38 5.46-2.16 8.28-2.16 3.84-.78-.96-1.26-1.14-.9-5.64-.12-2.46-.66-8.4.48-.18 1.86-4.56 1.98-4.44 2.28-2.58 1.32 3.54 1.62-.36 1.38 8.04-1.5zm74.46-10.98l.18-.96-.84-1.02-4.14.78L343 56.4l1.92.78 3.06.24 2.46-1.14zm-5.22-5.16l-.66.42-2.88-.18-4.56.96-2.28-.06-2.58 2.28 3.96-.24-2.04 1.74 1.92.48 4.08-.3 3.48-2.22 1.68-1.5-.12-1.38zm-23.46 1.5l1.08-1.38-1.86-.3-3.42 1.02-.42 2.82-3.66-.24-1.68-1.74-4.92-.96-3.24.84-6.96 2.88 2.46.48 10.68-.3-6.36 1.32-.9.96 3.54-.06 7.32-1.32 8.28-.48 3.06-1.38 1.38-1.44-2.22-.12-2.58.48.42-1.08zm33.12-2.58l-4.26-.18-2.28 1.2 1.56.9 4.2.36.84 1.26-1.32 1.44-.9 1.68 5.1.96 3.3.36 4.8-.06 6.96-.48 2.58.36 4.02-.6 2.1-.84.6-1.2-1.38-1.14-3.48-.18-4.8.24-4.2.66-3.06-.24-2.88-.18-.72-.66-1.86-.66 1.68-1.14-.84-.96-4.38.06-1.38-.96zm-45-1.56l-3.6.42-3.3-.06-7.26 1.86-6.96 2.22 2.16.6 4.2-.42 5.88-1.26 2.28-.18 3.12-.96 3.48-2.22zm48.3.36l.6-.3-.9-.54-4.32-.06-.36.78 3.84.18 1.14-.06zm-35.04-.48l1.92-.84-2.46-.48-3.54.3-3.06.9 1.98.9 5.16-.78zm4.68-2.52l-1.98-.54-.96-.12-3.42.78-.6.42h3.6l3.36-.54zm27.84 1.5l1.8-1.02-1.38-.96-1.02-.18-2.64-.06-1.26 1.08-.42 1.08.96.66 3.96-.6zm-8.22-.72l.06-1.32-4.44-1.02-3.66-.36-1.26 1.02 1.68.66-3.18.84 4.62.12 2.4.9 3.12.3.66-1.14zm32.22-3.66l.36-1.68-2.82-.48-2.82-.54-.96-1.32-4.92.12.18.54-2.34.18-2.46.78-2.94 1.14-.18 1.14 1.2.9h3.9l-2.58.72-1.26.96.96 1.14 4.02.36 4.08-.24 6.3-2.04 3.84-.78-1.56-.9zm47.1-8.28l-4.2-.12-4.14-.18-6.12.36-.84-.24-6.18.12-3.84.24-3.06.36-3 1.2-1.38-.6-2.34-.12-4.02.84-4.44.36-2.46.06-3.6.48-.66.78 1.5.72.48.96 2.64.9 7.44-.18 4.32.3-4.32.9-1.32-.24-5.58-.12-.66 1.32 1.8 1.02-1.68.96-4.5.66-2.94 1.02 2.88.54 1.02 1.8-4.5-1.2-1.5.18-1.2 2.04-4.8.66-1.2 1.38 4.02.18 2.94.36 7.02-.48 5.04.84 7.56-1.8.6-.66-3.84.12.3-.66 3.9-.84 2.16-1.14 4.08-.78 3-.96-.48-1.32 1.98-.48-2.58-.36 6.66-.24 1.92-.54 4.74-.48 5.58-2.1 4.08-.66 6.18-1.5h-4.44l2.34-.54 5.4-.48 5.82-.96.66-.66-3.12-.6-4.02-.24-5.1-.18zm55.08 239.88l.06-.24-.12-.36-.18-.06-.36.24-.06.18.06.18.18.18.18.06.24-.18zm3.78-1.02l.24-.12V273l-.06-.18h-.24l-.12.24v.3l.18.18zm-.84.48l-.3-.54-.18-.06-.36-.42v-.18l-.18-.06v.36l-.12.3v.3l.24.48.24.12.42.06.24-.36zm1.86-4.68v.3l-.18.42.3.18.18.06.36-.24.12-.3-.06-.18-.18-.18-.18-.06-.06.06-.3-.06zm-3.84-1.5l-.6-.06-.36-.12h-.06v.18l.24.48.12-.3.12-.06.48.12.24-.06-.18-.18zm4.02-.12l-.06-.3V267h-.12l-.18.12.06.42.06.06.12.3.12-.18zm-6.66-.6V267l-.18-.3-.18.06-.24.12-.06.18.24.12h.12l.3-.06zm-.9-.54l.48-.36.12-.18-.12-.3-.3-.06-.72.36-.06.12.06.18.06.3.12.06.36-.12zm-186.06-9.12l-.06-.18-.06.06v.36h.42l.18-.12h.36l-.06-.12-.48-.06-.06.06-.12.06-.12-.06zm4.8-1.38h0l-.06-.06h-.06l-.18.06h-.12l-.12.12h.12l.24-.12h.18zm.48-.06l.3-.12-.06-.06h-.06l-.06.06h-.06l-.3.18h.12l.12-.06z"/><path d="M643.3 298.38l-.3-.18-1.2-1.08-.18-1.2.48-1.56v-1.56l-1.98-2.4-.42-1.62-2.1.66-1.68 1.5-2.4 4.2-3.12 1.74-3.24-.24-.96.36.36 1.38-1.74 1.32-1.38 1.5-4.26 1.44-.84-.84-.54-.12-.6 1.02-2.82.24-1.62 3.9-.84.66-.24 3 .36 1.62-.24 1.14 1.56 1.98.3 1.38 1.26 1.92 1.56 1.26.18 1.74.36 1.08 1.74-3.54 1.98-2.04 2.28.66 2.16.24.3-2.7 1.32-1.92 1.8-1.2 2.76 1.26 2.16 1.44 2.46.36 2.52.72.96-2.28.48-.3 1.56.36 3.72-1.86 1.32.78 1.08-.12.54-.9 1.2-.36 2.58.42 2.16.06 1.08-.36-.54-1.26-2.52-1.5-.9-2.28-1.44-1.62-2.28-2.04-.06-1.2-1.86-1.56-2.28-1.5z"/><path d="M642.04 256.56l-13.44-7.32-13.38-7.32-3.24 2.1.96 5.94 1.2.96.12 1.26 1.38 1.32-.66 1.62-1.08 7.74-.12 4.98-4.14 3.6-1.38 5.04 1.44 1.38v2.46l2.16.12-.3 1.74 1.32 2.46.3 2.52-.12 2.58 1.86 3.48-1.86-.06-.96.24-1.5-.36-.72 1.8 1.98 2.22 1.5.66.48 1.56 1.08 2.64-.54 1.02 2.82-.24.6-1.02.54.12.84.84 4.26-1.44 1.38-1.5 1.74-1.32-.36-1.38.96-.36 3.24.24 3.12-1.74 2.4-4.2 1.68-1.5 2.1-.66v-.96l-1.26-1.08-.06-2.22-.72-1.5-1.2.24.3-1.44.84-1.56-.42-1.62 1.08-1.14-.72-.9.84-2.34 1.44-2.82 2.88.24-.66-15.12zm-276 274.56l-2.22-.42-1.98 1.5.12 2.46-.72 1.68-4.32-1.32-5.16-2.4-2.7-.78 5.82 4.08 3.78 1.92 4.5 2.04 3.18.54 2.58 1.08 1.8.3 1.38.06 1.92-1.08.3-1.44-1.74-.12h-3l-3.54-8.1zm-28.38-117.78l-2.22-4.26.66-3.72-1.92-1.62-.72-2.76-1.86-2.58-.72 1.98-1.62.96 1.26 5.4.9 6.24-.06 8.52v7.92l.54 7.38-1.14 4.68 1.26 4.68-.3 3.18 1.92 5.7-.06 5.7-.72 6.12-.36 6.3-1.26.12 1.44 4.38 1.98 3.78-.66 2.58 1.14 6.96.9 5.28 2.1.54-.66-4.62 2.4.96 1.08 7.62-3.84-1.26 1.2 6.12-1.62 3.3 4.92 1.08-2.04 2.88.12 3.6 3 6.36 2.52 2.46.12 2.16 1.98 2.28 4.5 2.1 4.44 2.52 3.72 1.2 1.2-.06-1.08-3.42 2.04-1.32 1.02-.9h2.52l-2.88-.54-7.2-.48-2.1-2.16-1.08-2.76-1.86.24-1.56-1.32-1.86-3.96 1.62-1.62.06-2.34-1.08-1.92.42-3.18-.66-4.92-1.08-2.22 1.08-.66-.78-1.38-1.68-.78.48-1.56-1.86-1.38-2.16-4.26.96-.72-1.98-4.56-.42-3.84-.18-3.42 1.5-1.44-1.98-3.78-.9-3.54 1.74-2.58-.84-3.24.96-3.72-.78-3.54-.96-.72-2.94-6.54 1.26-3.9-1.02-3.72.54-3.48 1.56-3.54 1.92-2.4-1.2-1.5.54-1.2-.96-6.36 3.36-1.92.66-3.96-.54-.96-2.28.54-1.86-5.28zm591.66-153.36l.36-2.16 1.2-1.68-.96-1.5-1.92-.06-3.48 1.08-1.32 1.68.6 3.3 2.94 1.2 2.58-1.86zm7.92-117.9l-3.66-3.66-2.64-2.22-2.28-1.62-4.62-3.66-3.54-1.38-5.1-1.08-3.72.12-3.06.66-1.02 1.8 2.22.9 1.5 1.98-.72 1.2.06 3.9 1.14 1.62-2.64 2.34-4.38-1.38.36 2.76.18 3.72 1.62 1.56 1.44-.48 3.24.6 1.5-1.38 3.06 1.2 4.32 2.58.42 1.32-2.58-.42-4.08.48-1.44 1.08-.84 2.46-3.78 1.44-1.86 1.98-3.54-.78-1.92-.3-.24 2.4 1.74 1.38 1.14 1.26-1.5 1.2-1.14 1.98-2.94 1.32-4.5.12-4.32 1.32-2.64 1.98-1.92-1.2-3.72.06-5.58-2.28-3.3-.54-3.84.48-6.72-.78-3.3.06-2.82-2.16-2.94-3.42-2.04-.42-4.74-2.28-4.32-.54-3.84-.6-1.8-1.62-.78-4.38-3.48-3-4.86-1.38-3.42-1.98-1.98-2.64-1.02.3-1.08 2.52-2.28.36 1.5 3.72-.96 1.68-6.42-1.2.6 6.66-1.2.84-5.4 1.44 5.22 6.42-1.74.96 1.02 2.1-.12.84-4.08 2.04-.6 1.44-3.84.48-.36 2.4-3.42-.54-1.92.72-2.4 1.8.66.9-.6.9 1.8 3.54.96-.36 2.1.84.36 1.5 1.08 2.22.84 1.14 2.82 1.8 1.74 3 5.64 1.56 4.56 4.5.48 3.12 1.8 1.98.36 1.98-2.46-.54 1.92 4.2 3.72 2.4 5.1 2.64 1.14-.9 2.82 1.2 3.84 2.46 1.92.54 1.5 1.86 2.7.72 3 1.68 3.84.9 3.9.36 1.8-.84.9 3.06 1.56-2.88 1.56-.96 2.52.9 1.74.06 1.62 1.08 2.52-.48 2.34-2.88 3.18-2.4 2.94.9 1.92-1.56 2.1 2.34-.72 1.62 3.66.54 1.8-.24 1.62 2.22 1.62.9.78 2.94.48 3.18-2.46 3.18.42 4.5 3.36-.6 1.38 3.48 2.22.78-.48 3.12 2.7 1.44 1.5.72 2.28-1.08.36 1.56.42.9 1.74.06-1.14-4.32 1.62-.6 1.62-.9h2.58l3.18-.42 2.46-2.04 1.8 1.44 3.12.66-.12 2.22 1.8 1.56 3.54.96 1.44-.6 4.62 1.2-.54 1.5 1.32 2.76 1.8-.24.48-4.02 3.36-.54 4.32-1.92 1.5-1.92 1.38 1.26 1.68-1.74 3.66-.42 3.96-3.18 3.78-3.54 1.98-4.56 1.38-5.04 1.26-4.14 1.68-.3-.06-3.06-.48-3.06-2.28-1.2-1.5-2.04 1.68-1.02-.96-2.82-3.24-2.94-3.24-3.48-2.76-3.78-4.26-2.1.54-2.76 2.28-1.92.6-2.1 4.02-1.08-1.44-2.04-2.04-.12-3.48-1.5-2.34 2.76-2.94-1.14-.9-1.74-2.82-.6-2.82-2.64.72-1.8 3-.18.72-2.46 2.16-2.64 2.04-1.32 2.64 1.98-1.14 2.52 1.38 1.5-.84 1.8 2.88-1.08 1.44-1.74 3.78-1.14 1.26-2.4 2.28-2.04.6-2.64 2.16 1.2 2.76.12-1.62-1.98 3.78-1.56-.06-2.1 3.3 2.16-1.14-1.86 1.5-.06-2.28-4.38-2.82-3.18 1.74-1.32 4.08.66-.36-3.6-1.68-4.08.24-1.38-.78-3.36-4.14 1.08-1.56 1.5h-4.5l-3.6-3.48-5.34-2.7-5.94-1.14zM709.66 378.3l-.24-.24h-.24v.12l.06.24.66.12-.24-.24zm2.34-.9h0l-.18.06-.06.12-.06.18h-.54l.48.3.42.42.06-.12.06-.42-.18-.54zm-3.36-.66l.12-.18-.12-.42-.24-.48.06-.84-.12-.12h-.18l-.06.06-.06.18-.18 1.2.24.36.18.06.36.18zm-83.46-58.8l-2.16-.24-2.28-.66-1.98 2.04-1.74 3.54-.24 2.1-2.7-.9-2.7-1.02-4.26-.18-.24 1.68.9 1.98 2.52-.3.84.72-1.44 4.44 1.62 2.28.36 2.94-.48 2.58-1.02 1.8-2.94-.18-1.8-1.8-.3 1.68-2.28.48-1.14.96 1.26 2.52-2.58 2.1 2.76 4.02 1.32-1.62 1.08-.66 1.2 1.32.9.36 1.14-1.44 1.86.06.24 1.08 1.2.66 2.04-2.4 1.98-1.86.84-1.2-.12-3.18 1.5-3.72 1.56-1.92 2.22-1.86.36-1.2.12-1.44.54-1.32-.18-2.16.42-3.36.66-2.4.96-2.04.18-2.28zm-342.72-28.38l-.84.78-1.02-.24-.48-.78-1.02-.3-.84.48-2.1-1.02-.54.48-.84.72.9.54-.54 1.2-.06 1.2.42.78 1.02.36.72 1.08.72-.96-.18-1.08.84.66.18 1.14 1.14.48 1.26.78.9.9.06.84-.42.66.66.78 1.74.84.24-.72.3-.78-.06-.72.48-.42-.66-.6.06-1.5 1.32-.36-1.44-1.62-1.2-1.56-.72-2.04zM616 156.24l-2.4-1.56-.96-.48-2.34 1.02-.18 1.5-1.02.36.12 1.02-1.2-.06-1.08-.6-.48.6-2.1-.12-.12.06v1.32l1.02 1.2.78-1.56 1.98.6.18 1.2 1.5 1.56-.6.3 2.76 2.7 2.88 1.08 1.86 1.32 3 1.38.3-.6-2.82-1.44-1.32-1.5-1.2-.84-1.5-1.38-.78-1.14-1.62-1.74.54-1.5 1.14.84.6-.78 1.38-.06 2.64.6 2.1-.06 1.44.84 1.02-1.38-1.02-1.08-.9-1.44-1.08.54-2.52-.72zm-281.46 128.7v-.36l-.54-.24v.18l.06.12.18.06.06.12-.06.36.12.18.18-.42z"/><path d="M666.94 197.04l-.18-.06-.3.12-.24.24-.24.18-.3-.18.12.54.36.66.12.18.18.12.66.18h.54l.12.06.12.24h.24v-.24l.12-.12.18-.12h.18l.36-.06.36-.12.3-.24.54-.6h.72l.36-.06-.12-.24-.06-.06-.24-.3-.12-.24.06-.36 1.5-1.14.3-.3-.48.12-.36.24-.24.12-.42.24-1.38.48-.48.06h-.48l-.6-.06-.54-.12v.42l-.12.36-.36.12-.18-.06zm-60.3-59.94l-1.26.36-.84-.42-.66.72-2.04.72-1.02.9-2.04.78.6 1.14.42 1.56 1.56.9 1.74 1.56 2.28 1.2 1.56-1.5 1.02-.3 2.4 1.14 1.38-.18 1.38.72.36-.84 1.32.06.96-.36.06-.36.54-.18.12-.84.66-.18.36-.66h.9l-1.56-1.86-2.16-.18-.42-1.2-2.04-.36-.36.9-1.62-.72.06-1.02-2.22-.36-1.44-1.14zm45.3 174.54l-2.58-.42-1.2.36-.54.9-1.08.12-1.32-.78-3.72 1.86-1.56-.36-.48.3-.96 2.28-2.52-.72-2.46-.36-2.16-1.44-2.76-1.26-1.8 1.2-1.32 1.92-.3 2.7-.18 2.28-.96 2.04-.66 2.4-.42 3.36.18 2.16-.54 1.32-.12 1.44-.36 1.2-2.22 1.86-1.56 1.92-1.5 3.72.12 3.18-.84 1.2-1.98 1.86-2.04 2.4-1.2-.66-.24-1.08-1.86-.06-1.14 1.44-.9-.36-1.2.78-.54 1.02-.12 1.62-.9.42.48 1.2 1.38-.54 1.02.06 1.14-.42 9.96.06.78 2.82.96 2.28.78 1.26 1.26 1.98 2.22-.3 1.14-.54 1.8.54.54-.96.9-2.22 2.04-.18.18-.66h1.74l-.3 1.38h4.08v2.4l.72 1.44-.54 2.28.18 2.4 1.14 1.38-.3 4.56.84-.36 1.44.12 2.1-.6 1.56.24 1.14.06.18 1.2 1.56-.06 2.1.36 1.08 1.68 2.7.54 2.04-1.2.72 2.04 2.58.48 1.2 1.68 1.26 2.1h2.58l-.18-4.14-.9.72-2.34-1.5-.84-.66.48-3.84.72-4.5-.72-1.68.96-2.46.96-.42 4.5-.66.6.18.12-.66-.9-1.02-.42-2.1-2.04-2.1-1.08-2.7.6-1.62-.9-2.16.66-6.12.06.06-.06-.66-.84-1.74.36-2.1.48-.24.12-2.28.96-1.08.06-2.88.78-1.44.18-3.06.72-1.8 1.26-1.98 1.32-1.02 1.08-1.38-1.38-.48.18-4.5-3-2.52-.84-1.62-1.86.78-1.56-.24-.9.66-1.5-.48-2.1-3.12-1.08.36-2.16-.06zm-53.4-190.92l-1.02-1.8-4.02 1.2.54 1.5 3.06 2.04 1.44-2.94zm-5.16-3.06l-1.56-.54-.42-.96.78-1.2-.06-1.8-2.16.96-.9 1.02-2.4.24-.72 1.02-.42.96.24 3.66 1.26 2.04 2.16.48 1.8-.54-.9-1.8 1.86-2.58.84.42.6-1.38zm114.3 169.86l-1.5-1.02 1.86-.9.06-1.62-.84-1.14-.96.9-1.44-.3-1.14 1.68-1.08 1.8.3 1.02.12 1.2 1.86.06.78-.3.78.66 1.2-2.04zm-349.2-14.46l.18-.42-.06-.6-.12-.24-.48-.18v.12l-.06.3.18.48.06.66.3-.12zm-33.72-10.62v1.08l.84.6 1.56-2.64 1.2-.54.36.96 1.32-.24.66-.72 1.08.18 1.56-.12 1.5.78 1.38-1.56-1.5-1.38-1.44-.12.18-1.14-1.8.06-.48-1.32-.84.06-1.86-.96-2.64-.06-.48.66.12 2.1-.42 1.44-.9.66.72 1.14-.12 1.08zm-15.9 69.42l-1.44-.9-1.68-1.26-.96.6-2.82-.54-.84-1.62-.6.06-3.36-2.16-2.34 1.5-1.86.84.24 1.56-1.32 2.46-.6 2.34-1.14.6.6 3.48-.66 1.08 2.04 1.62 1.26-1.74.78 1.68-1.74 2.82.42 1.62-.9.9.12 1.38 1.38-.3 1.38.42 1.5 1.92 1.86-1.56.54-2.58 1.98-3.3 4.02-1.5 3.6-4.02 1.02-2.46-.48-2.94z"/><path d="M654.82 212.88l-3.3-1.14-3.18-1.02-4.26.12-1.08 1.8.66 1.62-.72 2.34 1.2 3.06.78 13.62.6 14.04h39.18l-.6-.78-4.08-3.42-.24-2.52.6-.66-3.18-4.2-1.2-2.16-1.38-2.1-2.88-5.94-2.34-3.84-1.68-4.02.3-.36 2.76 5.46 1.62 1.74 1.2 1.2.72-.66.72-1.98.42-2.88.78-1.5-.42-1.02-2.34-5.52-1.5.96-2.52-.24-2.64-.9-.66 1.26-1.02-1.92-2.34-.48-2.82.36-1.26 1.08-2.34 1.2-1.56-.6zm-385.5 67.32l.36-1.5-.42-.42-.66-.3-1.5.48-.06-.54-.96-.6-.66-.78-.9-.3-.84.24.12.42-.66.42-1.26.96-.12.6.84.78 1.86.24 1.32.78 1.14.36 1.98.06.42-.9zm331.74 42.48l-5.52-.12-1.14 4.32.6.54 1.14-.18h4.92v-4.56zm94.8-50.28l-1.92-1.86-1.08-3.54-2.22-4.38-1.56 2.16-2.4.6-.96 1.2-.24 2.52-1.14 5.64.42 1.5 3.9.78.9-2.82 2.1 1.74 1.92-.9.84.78 2.34.06 2.94 1.5.96 1.32 1.5 1.26 1.5 2.22 1.2 1.26 1.44.3.96-.9-1.68-1.14-1.14-1.32-1.92-2.22-1.92-2.16-4.74-3.6z"/><path d="M632.92 106.5l-3.3.54-3.24.96.54 2.04 1.98 1.26.9-.48.06 2.1 2.22-.6 1.26.42 2.64 1.32h2.28l.96-1.14-1.5-3.3 1.56-2.04-.54-.6-2.76.12-3.06-.6zm56.64 167.7l-.9 2.82-3.9-.78-.42 3.3-1.26 3.72-1.92 1.92-1.38 2.88-.3 1.56-1.56 1.08-.84 4.02v.42l.12 3-.48 1.2-1.8.06-1.08 2.16 2.04.3 1.74 1.86.6 1.5 1.56.9 2.1 4.14 1.74.66v2.16l1.2 1.26h2.34l4.32 3.24h1.08l.78-.06.72.42 2.28.3.96-1.62 3.06-1.56 1.38 1.26h2.28l.9-1.2 2.16-.06 2.94-2.7 4.44-.18 9.24-11.46-2.88.06-11.1-4.56-1.32-1.32-1.26-1.86-1.32-2.1.66-1.38-.78-.66-.78.3-1.86-.06-.12-1.2-.3-1.02 1.08-1.8 1.14-1.68-1.2-1.26-1.5-2.22-1.5-1.26-.96-1.32-2.94-1.5-2.34-.06-.84-.78-1.92.9-2.1-1.74zM391.18 529.62l-.06-.18-.36-.18.06.12.06.18.06.12.12.06.12-.12zm3.3-.78h0l-.18-.06-.06.12.12.18.24.06-.12-.3zm-7.74-.84l-.06.12-.24.06.12.18.36.24h.24l.06-.18-.06-.36h-.18l-.24-.06zm1.68-1.2l-.54-.18-.24-.18h-.18l.24.24.12.24.72.36.24.18-.06.06-.48.18h-.18l-.12.06.24.12.36-.06.12-.06h.12l.18.06v.12l-.06.12-.12.12-.24.18-.36.24h-.48l-.42.42.54.3.42.18h.54v-.06l.12-.06h.18l.06-.06.12-.24v-.36h.12l.18.06.42-.06.18-.06.36-.54.36-.72.18-.12.06-.12.06-.18.18-.12v-.18l-.24-.12-.18-.12-.18.18-.12-.06-.54.18h-.24l-.18-.12-.24-.06-.24.06-.3.3-.48-.12zm.42-.24l.06-.18-.06-.12-.3-.12h-.3l.12.3.12.12h.36zm3.54-.42h-.24l.24.3-.48.48.12.36.18.24.06.12-.06.06-.24.06-.18.06-.12.18-.54.54.12.12-.18.42.12.18.48.42.48.24v-.42l.24-.06.24.12.24-.12-.54-.6h.18l1.5.3-.06-.24-.06-.12-.18-.24.9-.24.3-.18.12-.18.36-.06.48-.18-.06-.06.06-.18-.24-.12-.3-.06.06-.18.3-.06-.48-.42-.18-.06-.6.06-.18.06v.12l.06.18.18.18.06.12-.12-.06-.66-.24-.12-.06-.12-.24.12-.06.18.06.06-.18-.24-.18-.24-.06-.54.06-.48-.18zm152.82-426v-.18l-.06-.18v-.12h-.06l-.3-.06-.06-.12h-.06v.12l.06.24.3.24.18.06.06.06-.06-.06zm.3-1.26v-.06l-.12-.12-.3-.12-.12-.06-.12.06v.12l.06.06.24.06.24.18h.06l.06-.12zm-1.44-1.14l-.12-.06-.3.06h-.18l.06.18.36.12h.36l.12-.06-.06-.12-.24-.12zm1.5-.3l-.48-.12-.36-.18-.6.06.42.66.48.42.24.12v-.18l-.24-.3-.06-.06v-.06l.06-.06h.12l.18.12h.12l.12-.42zm.6-.12l-.18-.12-.24-.24v.54h.06l.18.06.18-.24zm616.86 295.32l-2.22 1.2-1.14.18-1.86.78.12 1.44 2.34-.78 2.34-.96.42-1.86zm-6.6 4.86l-.96.6-1.38-.48-1.62 1.32-.12 1.68 1.74.48 2.16-.54 1.08-1.98-.9-1.08zM633.04 74.64l.48-2.28-3.42-1.26-3.48 1.08-.66 2.34-2.04 1.44-2.82-.78-3.18.18-3.06-1.74-1.26.84 3.54 1.62 4.32 2.22 1.02 5.04 1.14 1.32 3.84 1.56.54 1.38-1.56.72-5.22 3.66-1.98 2.16-.9 1.98 1.74 3.12-.06 3.42 2.82 1.14 1.86 1.86 4.26-.72 4.5-1.26 4.8-.3 4.74-4.44 1.98-1.98.54-1.74-4.38-2.34.54-2.22-2.94-2.46 1.02-2.88-3.84-3.78 1.68-2.46-4.32-2.22-.24-2.22zm-40.62 95.64l-.66-3.12-1.92 1.38-.6 1.38.84 2.52 1.44.72.9-2.88zm-18.9-30.54l-1.44-1.44-1.32-.06-.42-1.32-2.58.72-.84 3.06-6.78 2.88-2.76-1.56.84 4.2-4.92-.96-3.84.78.24 2.76 4.5 1.44 2.16 1.86 3.06 3.9-.6 7.38-1.62 2.22 1.2 1.44 5.64 1.68 1.14-.78 3.42 1.68 3.6-.48.3-2.22 4.44-1.2 6 .96 2.7-2.04.3-1.62-1.62-.48-.9-2.88 1.02-1.08-.96-1.44.12-1.02-1.08-1.62-1.44.54v-1.68l2.1-2.1-.12-.96 1.38.36.78-.6.3-2.7 1.38-2.52-4.26-.72-1.44-.96-.84.06-.66-.3-2.64-1.68-1.5.24-2.04-1.74zM385.84 321.72l1.08-2.82 2.1-3.48-.54-1.56-3.48-3.24-2.46-.9-1.14-.42-1.86 3.3.24 2.64 1.26 2.22-.6 1.62-.36 1.74-.84 1.68 1.44.78 1.08-1.08.72.18.48 1.08 1.62-.3 1.26-1.44z"/><path d="M104.92 410.94l-.06-.18-.12-.18-.06.06.06.06.12.18v.12l.06-.06zm5.58-8.82l-.12-.12-.48-.24-.06.06.06.06h.06l.18.12.36.12zm-14.7-.66l-.36-.18.06.12.36.18-.06-.12zm12.3-.12l-.24-.3h-.18l.42.3zm-12.96-.6l-.24-.24-.12-.18-.18-.06.3.3.18.24.12.06-.06-.12zm-.18-1.26l-.06-.06v-.18l.12-.18.36-.24v-.06l-.36.18-.12.12-.06.12-.06.18.06.12.06.06h.12l-.06-.06zm-28.44-.66l-.12-.36-.18-.3-.48-.06-.3.12-.06.12.06.24.3.42.3.06.48-.06.24.36.12.06.24.06.06-.18-.12-.3-.54-.18zm-1.74-.54l.06-.24-.12-.06h-.3v.12l.06.12.06.06.18.12.06-.12zm-5.82-2.58h.12l-.24-.36-.18-.12v.48l.18.06.12-.06zm26.34-.96h-.36l.3.06.24.12-.18-.18zm-.42.06l-.18-.06-.18-.12h-.18l.42.18h.12zm-26.28.06l.06-.12-.06-.06-.24-.12.06.18v.12h.18zm19.68-1.2l-.18-.24-.12-.18-.12-.24-.24-.3.06.18.06.12.12.12.18.36.18.24h.06v-.06zm9.72-.9l.06-.3h-.12l.06.3zm-8.64-.96l-.36-.36h-.06l.06.12.3.3.06.12v-.18zm18.48-20.34l.06-.12v-.12l-.06-.06-.18-.06.06.42.12-.06zm-1.62-2.22l-.06-.12h-.12l-.06.06v.3l.24-.24zm.06-.96l-.48.3.12.24.24.06.12-.12.48-.06.18-.24-.18.06-.48-.24zm-3.66-1.02l.12-.3-.12-.06-.24.12v.12l.18.24.06-.12zm1.56-1.86l.18-.06v-.06l-.12-.12-.18-.06-.06.06-.06.12.06.18.18-.06zm-1.74-.06l.06-.18v-.12l-.06-.12-.54-.12-.06.06v.24l.12.3h.18l.3-.06zm514.68-42.72l-.42-.18-2.04.48-2.04-.48-1.56.24v4.56h-4.92l-1.14.18-.66 2.88-.78 2.76-.78 1.2-.12 1.26 2.04 3.96 2.22 3.18 3.48 3.84 2.58-2.1-1.26-2.52 1.14-.96 2.28-.48.3-1.68 1.8 1.8 2.94.18 1.02-1.8.48-2.58-.36-2.94-1.62-2.28 1.44-4.44-.84-.72-2.52.3-.9-1.98.24-1.68zM506.68 281.1l3 .06.84-.54h.6l1.26-.9 1.44.84 1.44.06 1.44-.9-.66-1.08-1.08.66-1.08-.06-1.26-.9-1.08.06-.78.9-3.66.12-.42 1.68zM697 168.12l-4.5-1.74-4.62-.6-2.7-.66-.3.42 1.32 1.14 1.8.42 2.04 1.38 1.26 2.52-.18 1.62 3.24-.18 3.36 1.8 4.14-.6.66-.6 2.52 1.08 1.68.24.36-.42-1.92-2.04.66-.54-2.1-.84-1.26-1.5-3.06-.78-1.74.6-.66-.72zm-93.84-40.74l-1.44-1.14-3.3-1.44-1.5 1.02-2.82.66-.06-1.26-2.94-.84-.12-1.38-1.8.54-2.16-.48.24 2.04.72 1.32-1.8 1.8-.6-.78-2.34.18-.54.78.6 1.2-.6 3.36-.66 1.38h-1.74l.66 3.84-.24 2.52.6.84-.12 1.62 1.44.96 4.26.72-1.38 2.52-.3 2.7h2.52l.6-.84 3.24 1.14.9-.18 1.56 1.02.36-.96 2.64.18 2.04-.72 1.44.12 1.02.78.24-.66-.6-2.4 1.02-.48.9-1.74-1.74-1.56-1.56-.9-.42-1.56-.6-1.14 2.04-.78 1.02-.9 2.04-.72.66-.72.84.42 1.26-.36-1.38-2.34.06-1.26-.84-1.98-1.2-1.32.72-.96-.84-1.86zm-40.08 161.88l-1.56-.3-1.08.6-1.44-.3-5.82.18-.12 2.16.48 2.88.84 5.46-1.38 3.18-.9 4.32 1.44 3.3-.12 1.5 3 1.08 3-1.14 1.92-1.26 5.22-2.28-.72-1.32-.9-2.4-.24-1.92.72-3.42-.84-1.38-.36-3.06.06-2.76-1.44-1.98.24-1.14zm75.06-94.32l-.48 1.68 3.96.72v.66l4.56-.36.3-1.14-1.68.48v-.66l-2.34-.3-2.46.24-1.86-1.32zm6.9-22.44l-1.62-.96.18 1.8-2.76.36-2.34-1.26-2.34 1.02-2.28-.12-.6.12-.42.66-1.68-.06-1.14.78-1.98.36v.96l-.96.54-.06 1.26-1.26 1.8.3 1.14 1.74 2.16 1.38 1.8.78 2.58 1.38 3.06 2.76 1.74 2.04-.06-1.44-3.42 1.98-.42-1.14-1.98 3 1.02-.24-2.22-1.62-1.08-1.92-1.8 1.08-.84-1.68-1.8-.96-2.28.54-.78 1.8 1.92h1.74l1.5-.6-2.34-2.16 3.66-.96 1.62.36 1.92.12.66-.42.72-2.34zM509.44 33.78l-15.6-.24-7.08.18-3 .78-6.9-.06-7.62 1.26-.96 1.02 4.02 1.26-3.72-.78-2.7-.18-4.2-.84-6.36 1.26-1.62-.72h-6.24l-6.54.36-5.34.6-.12 1.08-3.18.3-8.76 1.74-2.76 1.02 4.86.9-1.68.96L415 45l-9.3 1.32-1.32 1.02 3.84 1.2 8.7.72-4.5.12-6.54.9 2.28 1.86 1.8.9 5.64-.18 6.06-.12 4.56.18 4.8 1.74-.84 1.26 2.16 1.14.84 3.18.6 2.16.84 1.14-4.2 2.88 1.56.78 2.64-.48 1.56 1.08 3.18 2.04-4.5-.84h-2.28l-1.8 1.68-.9 2.16 2.52 1.08 2.4-.48 1.56-.48 3.3-1.14-1.68 2.52-1.56 1.38-4.26 1.2-4.2 3.78 1.2 1.2-2.04 2.4 2.22 3.12-.9 3 .42 2.22 2.88 4.26.48 3.36 1.86 1.92h5.34l3 2.82 3.9-.18 2.46-3.42 2.1-2.88-.18-2.64 5.16-2.76 1.98-2.22.84-2.34 2.82-2.1 3.9-.78 3.66-.84 1.8-.12 6.12-2.34 4.44-3.42 2.88-1.26 2.76-.06 7.5-1.08 7.26-2.58 7.14-2.76-3.3-.18-6.36-.12 3.18-1.68-.3-2.16 2.52 1.8 1.62 1.26 4.38-.6-.36-2.58-2.7-1.86-3-.78 1.44-.84 4.32 1.26.3-1.38-2.46-2.04h3.24l3.36-.48 1.02-1.08-2.4-1.26 5.16-.18-2.4-2.58 2.46-.3.06-2.52-3.72-1.5 3.84-.96 3.48-.06-2.16-1.92.66-3.06 2.16-1.74 2.94-1.92-4.8-.12 6.78-.42 1.32-.6 8.76-1.74-.96-1.02-6-.48-10.14.9-5.52.9 2.7-1.38-1.38-.84-4.2.72-5.82-.84-7.26.3-.84-.42 10.98-.24 7.74-.12 3.96-.84-11.82-1.74zM356.26 285.42l.3-.12.12-.66-.18-.06-.18.18-.18.3v.24l-.12.18.24-.06zm2.58-14.76l.12-.12v-.18l-.12-.18-.12.06-.12.18v.18l.06.06h.18zm-1.14-.48l.12-.12v-.72l.06-.18-.12-.06-.12-.12-.36-.12-.06.06-.12.18.06.9.12.3.12.06.3-.18zm.96-.84l.48-.12-.54-.36-.12-.24v-.18l-.24-.18-.12.12-.06.18.06.3-.18.24.06.24.24.06.42-.06zm-91.98-6l-3.06-.06h-3.12l-.24 2.16h-1.56l1.08 1.26 1.14.9.3.84.48.24-.24 1.26h-4.26l-1.98 3.12.42.72-.48.9-.24 1.14 1.62 1.56 1.5.78 2.04.06 1.68.66.12-.6 1.26-.96.66-.42-.12-.42.84-.24.78-.96-.18-.78.3-.72 1.68-1.08 1.68-1.44-.9-.48-.36.54-1.02-.66h-.96l.72-4.32.42-3zm257.76 20.46l-.48.24-1.8-.3-.24.42-.78.06-2.4-.9-1.62-.06-.06 1.26-.36.42.24 1.26-.48.54h-.78l-.84.6-1.02-.06-1.56 1.86.96.66.48.84.42 1.68.78.72.9.54 1.26 1.5 1.44 2.22 1.8-1.68.42-1.02.6-.84.9-.12.78-.72h2.7l.9 1.38.72 1.62-.12 1.08.54 1.02v1.38l.9-.18.72-.12.9-.42 1.38 2.34-.24 1.56.66.78.96.06.66-1.56.96.12h.54l.18-1.68-.24-.72.36-.54 1.2-.48-.78-3.06-.78-1.56.3-1.32.66-.3-1.02-1.08.18-1.14-.42-.42-.72.36.12-1.26.72-.96-1.38-1.62-.36-1.02-.78-.84-.66-.12-.78.54-1.08.48-.96.84-1.44-.3-.9-.96-.54-.12-.9.48h-.54l-.18-1.38z"/><path d="M517.12 283.26l-6.18-.18-.9.42-1.08-.12-1.8.66.18.78 1.02.84v.54l.72 1.08 1.44.3 1.74 1.56 1.56-1.86 1.02.06.84-.6h.78l.48-.54-.24-1.26.36-.42.06-1.26zm-146.46 25.26l-1.26-1.38-1.74-1.86-1.26-.06-.06-1.98-1.98-2.46-2.16-1.44-2.76 2.28-.36 1.38 1.14 1.38-.9.72-2.04.66v1.74l-.96 1.08 2.22 2.88 1.74-.18.78.9-.48 1.68 1.14.54.72 1.8-.96 1.32-.6 3.24.84 1.98.18 1.74 2.1 1.8 1.62.18.42-.78 1.02-.12 1.56-.66 1.08-1.02 1.86.3.84-.12-1.98-3.36-.42-2.1-1.08-.06-1.44-2.76.66-1.98-.18-.9 2.1-.96.6-3.42zm-45.3-52.5l-2.76-.6-2.04-.12-.84 1.02 2.04.6-.18 1.44 1.32 1.68-1.26.84-2.52-.3-3-.54-.42 1.26 1.68 1.14 1.62-.66 1.98.24 1.62-.24 2.16.66.12-1.08-.72-1.14.9-.66.42-1.44-.12-2.1zm-39.9 18.06l-.78-1.08-1.14-.6-.9-.84-.96-.72-.48-.06-1.5-.54-.66.3-.9.12-.78-.24-1.02-.24-.48.42-1.08.42-1.56.12-1.5-.36-.54.24-.3-.36-.96.06-.78.66-.36-.12-1.68 1.44-1.68 1.08-.3.72.18.78-.78.96.9.3.66.78.96.6.06.54 1.5-.48.66.3.42.42-.36 1.5 1.02.36.42 1.2 1.08-.18.48-.9h.48l.12-1.86.78-.12h.72l.84-1.02.9.78.36-.48.66-.42 1.26-1.08.18-.78.3.06.48-.9.36-.12.54.54.66.18.78-.48h.84l1.2-.48.54-.54 1.14.12zm654.48-27.54v-.24l-.24-.12h-.18l.06.12.24.3.12-.06zm-.78 0l-.06-.3.12-.18-.54.18-.06.18v.06l.12.06h.42zm.96-.72l-.06-.18-.12-.06-.06-.18-.06-.12-.18-.06-.12-.06h-.24l-.06.06h-.12l-.12.12v.12l-.3.24v.12l.18.12.3-.06.36.12.48.18v-.3l.12-.06zm-315.66-99.54l-.96.24-.6.9-1.32.42-.36-.24-1.38.6-1.14.12-.18.72-2.46.48-1.14-.42-1.56-.96-.12 1.56h-1.68l.66.78-.78 2.4.48.06.72 1.26.96.48 2.4 1.56 2.52.72 1.08-.54 2.22-.96 1.92.12 2.28-.66 1.56-2.58 1.14-2.52 1.74-.78-.36-.96-1.74-1.02-.6.36-3.3-1.14zm-98.04-63.12l-4.14-.24-4.38 1.74-3.06-.9-4.14 1.8-3.54-2.28-3.9.48-2.16 2.22 5.22.78-.06.96-4.68.66 5.28 1.62-2.76 1.5 7.02 1.08 3.36.48 2.34-.6 7.74-2.34 3.66-2.52-2.64-2.28.84-2.16zm299.04 132.9l-5.1-2.64-3.72-2.4-1.92-4.2 2.46.54-.36-1.98-1.8-1.98-.48-3.12-4.56-4.5-2.22 3.24-3.42.6-5.1-.96-1.14 1.68 1.92 3.36 1.74 2.58 3 1.86-2.22 2.22.6 2.7-2.34 3.78-1.26 3.9-2.7 4.02-3.84-.3-2.94 3.96 2.4 1.74.78 2.94 2.1 1.92 1.08 3.3h-7.2l-1.92 2.52 4.26 3.24 1.14 1.5-1.44 1.38 4.8 4.62 2.4.48 4.56-2.28 1.02 3.54.48 4.68 1.5 4.86 2.16 7.38 3.48 5.28.78 2.34 1.2 4.8 2.04 3.66 1.32 1.8 1.5 3.84 1.86 5.34 3.3 3.6 1.32-1.08 1.02-2.64 3-1.08-1.08-1.26 1.32-2.88 1.74-.18-.42-6.48 1.14-3.66-.42-3.18-1.14-4.92.72-2.94 1.5-.18 2.88-1.38 1.56-.96-.18-1.74 3-2.52 2.22-2.4 3.18-4.5 4.44-2.52 1.44-2.28-.54-2.88 3.96-.78 2.22.06.3-1.44-.96-3.12-1.56-2.88.24-2.28-2.22-1.02.48-1.38 1.86-1.44-2.76-2.04.72-2.58 2.88 1.62 1.62.24.72 2.64 3.24.54 3-.06 2.04.66-.96 3.18-1.44.24-.66 2.16 2.1 1.98.12-2.4.9-.06 2.7 6.06 1.44-.9-.54-1.62.54-1.26-.54-3.96 2.76.84.9-3.12-.18-1.86 1.26-3.24-.54-2.16 3.66-2.64 2.46.66-.78-2.34.96-.72-.54-1.44-3.66-.54.72-1.62-2.1-2.34-1.92 1.56-2.94-.9-3.18 2.4-2.34 2.88-2.52.48 1.62 1.2.24 2.34-2.64.12-2.82-.24-1.92.6-3.3-1.5-.18-.72-.9-3.06-1.8.84.06 1.62.9 2.46-.06 1.5-2.76.06-4.08-.9-2.58-.36-2.28-1.92-4.56-.54-4.62-2.1-3.48-1.86-3.42-1.5.54-3.54 1.68-1.74z"/><path d="M968.14 370.38l.3-1.02-1.08-1.14-1.68-1.2-3.18.78 4.2 2.64 1.44-.06zm12.54-.36l2.4-2.88.06-1.14-.3-.78-3.42 1.56-1.68 2.34-.42 1.26.36.48 3-.84zm-21.36-7.8l-.96 1.32-1.86.06-1.32 2.16 1.8.06 2.34-.54 3.96-.72-.72-1.68-2.1.36-1.14-1.02zm16.86 0l-3.12 1.38-2.28.3-2.04-1.14-2.7.78-.12 1.38 4.44.48 5.16-1.08.66-2.1zm-47.7-5.04l-.42-1.38-1.38-.3-2.64-1.44-4.08-.24-2.46 3.66 3.06.24.48 1.68 6 1.56 1.44-.48 2.46.36 3.78 1.44 3.12.72 3.48.3 3.06-.12 3.54 1.5 3.96-1.44-3.96-2.28-4.98-.66-1.08-2.46-6.18-1.86-.78 1.56-6.42-.36zm87.96-2.16l.12-1.8-.72-1.14-.78 1.32-.72 1.32.18 2.88 1.92-2.58zm-24.6-10.5l-.84-1.26-3.42.18.6 1.62 2.34.72 1.32-1.26zm10.86-1.44l-3.66-1.08-4.14.18-.9 2.1 2.34.12 1.92-.24 2.76.3 2.82 1.56-1.14-2.94zm12.6-7.38l-.48-1.44-5.4-1.56-1.74 1.26-4.56.9 1.38 1.92 3 .72 1.26 2.22 4.98.06.24.96-2.4-.06-3.72 1.38 2.52 1.86-.06 1.68.72 1.38 1.26-.3 1.08-1.86 4.92 3.54 2.76.3 6.36 3.24 1.38 3.18.6 4.14-2.22 1.08-1.68 3.12 4.26-.12.96-1.08 3.3.78 2.76 3.12.9-12.48.6-12.42-3.6-.72-2.46-1.38-2.82-1.32h-3l-3.96 2.28-2.94 4.08-3.42-2.28-.78-6.18zm-30-9.84l-.6-.84-3.3 2.76-3.9.18-4.26-.54-2.64-1.14-2.82 2.88-.72 1.56-1.74 5.76-.54 3-1.44 2.52.96 2.58 1.38.06.36 3.66-1.14 3.54 1.38 1.14 2.16-.6.18-5.46-.12-4.44 2.28-1.14-.42 3.72 2.34 2.22-.48 1.5.78 1.02 3.36-1.44-1.8 3.12 1.26 1.32 1.86-1.14.18-2.46-2.82-4.44.66-1.32-3.06-4.86 3-1.5 1.56-2.22 1.44.54.3-1.74-6.3 1.26-1.86 1.74-3-3.36.54-2.88 2.94-.6 5.58-.18 3.24.78 2.58-.78 2.64-3.78zm11.64 1.14l-.36-1.56-1.98-.36-.3-2.1-1.08 1.38-.6 3.06 1.02 4.92 1.32 2.4.96-.48-1.38-1.98.54-2.34 1.74.36.12-3.3zm-36.54-2.7l.54-1.74-2.58-3.6 1.8-3.48-3-.6h-3.84l-1.02 4.32-1.2 1.32-1.62 5.34-2.7.78-3.24-1.08-1.62.36-1.92 1.92-2.16-.24-2.16.72-2.34-2.1-.6-2.58-1.98 2.52-.36 3.54.48 3.36 1.56 3.24 1.68 1.08.42 5.1 2.76.48 2.16-.24 1.2 1.86 4.02-1.38 1.68 1.2 2.4.24 1.2 2.34 3.9-1.74.48 1.38 1.5-5.82.18-3.84 3.3-2.58-.12-3.48 1.08-2.58 4.02-.48-3.9-3.54zm-41.22 29.34l.42-5.88 1.02-4.8-1.56-2.4-2.46-.3-1.14-2.16-.54-2.64-1.2-.12-1.92-1.32 1.38-3.12-2.58-1.74-1.98-3.18-2.88-2.64-3.42-.06-3.3-4.08-1.92-1.62-2.7-2.58-3.12-3.72-5.28-.72-2.16-.18.36 1.92 3.66 4.2 2.64 2.16 1.86 3.3 3.06 2.4 1.32 2.94 1.02 3.3 2.94 3.18 2.46 5.34 1.62 2.88 2.46 3.12 1.32 2.28 4.2 3.12 2.7 3.18 3.72-.06zm-214.08-171l-1.92-1.74-.72-1.44-1.98 1.08 1.74 4.38-.42 1.2 2.22 3.12 2.82 4.68 2.22 1.14.6 2.28-1.38 1.32-.3 3 2.76 3.66 4.2 2.04 2.1 2.94-.12 2.76h1.02l.3 1.98 2.04 2.04 1.02-1.5 2.22 1.26 1.68-.6 3.06 5.04 2.58 3.66 3.3 1.08 3.66 2.94 4.14 1.26 3.06-1.86 2.4-.66 1.68.66 1.92 4.68 3.78.48 3.66.9 6.3 1.14.72-4.44 4.44-1.98-.54-1.74-1.62-.6-.6-3.42-3.36-1.62-1.68-2.34-1.92-1.98 2.34-3.48-.66-2.4-2.58-.66-.66-2.4-1.62-3.06.96-2.1-1.5-.54.3-2.82.3-4.8-.96-3.3-2.34-.12-4.38-3.42-2.58-.42-3.9-1.98-2.28-.36-1.26.72-2.1-.12-1.8 2.22-2.64.72-.12.96-4.74 1.02-4.56-.66-2.58-1.98-3.12-.78-1.5-2.88-.78.18-2.28-2.04.72-1.86-1.14-1.14-1.14.3-3.18 2.82-1.08.12-2.22-.54z"/><path d="M701.38 188.94l-3.72-.54-1.26.6-1.26 2.46-1.62.96.72 2.82-.54 4.68-6.6 4.02 1.86 4.62 4.02 1.02 5.1 2.7 10.02 7.62 6.12.3 1.92-3.66 2.22.3 1.92.24-2.04-2.04-.3-1.98h-1.02l.12-2.76-2.1-2.94-4.2-2.04-2.76-3.66.3-3 1.38-1.32-.6-2.28-2.22-1.14-2.82-4.68-1.38.66-1.26-.96zm-156-61.92l-2.1-.78-1.74.06.66-1.92-.48-1.92-2.22 1.68-4.02 2.82 1.26 3.66-2.52 3.84 4.02.54 5.22-2.16 2.34-3.24-.42-2.58zm132.3 77.28l-.84.06-.24.66h-1.08l-.06.06-.36.96-.36 2.88-.66 1.74.24.24-.84 1.26 2.34 5.52.42 1.02 1.02-6.12-.24-1.44-1.44.48.06-1.02.72-.48-.84-.42.42-2.58 1.2.54.42-1.2h-.06l.36-.6-.18-1.56zm-66-19.14l-2.4.3-3.12.42-3.72-.36-.36 2.04 4.5 1.98 1.62.42 2.52 1.44.54-1.98-.54-1.2.96-3.06zm-20.22-11.34l-1.5 1.14-1.68-.18.78 2.16.24 4.56 1.26 1.02 1.2-1.26 1.44.24.24-5.04-1.98-2.64zm8.58-20.58l-.78-1.32-2.88.66-.3.72-1.86-.54-.18 1.5-1.26.66-2.28-.48-.54 1.5-1.44.12-.54-.6-1.62 1.26-1.44.18-1.32-.78-.12 1.02.96 1.44-1.02 1.08.9 2.88 1.62.48-.3 1.62 1.26-.3 1.68-1.68 1.38-.54 2.52 1.26 1.56.42 1.14 3.6 2.16 2.16 2.94 2.4 2.52 1.68 2.34.24 1.38 1.5 2.04.72 1.02 1.62 1.32.48 1.08 1.92 1.38 2.22-.66.78-.48 2.1.06 1.2 1.26-.3 1.5-3.36 1.26-.24.24-1.98-2.34-1.38 1.14-2.46 2.7.6 1.86 1.8.48-1.38-.36-.72-2.82-1.92-2.34-1.14-2.88-1.38.84-.72-.84-.84-2.4.06-3.6-3-1.74-3.06-2.94-1.86-1.14-1.86.3-1.08-.24-1.8 2.34-1.32 2.46.54-.84-1.62.18-1.8-4.32-.96z"/><path d="M544.9 291.72l-1.38.54-.78.48-.54-1.62-.96.42-.6-.06-.6 1.14-2.58-.06-.96-.6-.42.36-.66.3-.3 1.32.78 1.56.78 3.06-1.2.48-.36.54.24.72-.18 1.68h-.54l-.18 1.08.36 1.86-.72 1.68.96 1.08 1.08.24 1.38 1.62.12 1.5-.3.48-.3 3.12.66.12 3.36-1.44 2.34-1.08 3.96-.66 2.16-.06 2.34.78 1.56-.06.12-1.5-1.44-3.3.9-4.32 1.38-3.18-.84-5.46-2.28-.96-1.62.12-1.14.96-1.5-.78-.6-1.26-1.5-.84zM307.42 263.1l2.34-.06-.48-1.08-1.62-.9-2.22-.36-.72-.12-1.44.24-.48.9 1.74 1.38 1.8.6 1.08-.6zm685.08-62.16l-2.7-.78-.66 1.62-1.98-.48-.78 2.28.72 1.8 2.52 1.08-.06-2.22 1.26-.9 1.86 1.26.78-2.34-.96-1.32zm14.64-11.58l-2.16-4.02.78-3.84-1.68-3.12-4.86-5.22-2.88.72.12 2.34 3.06 4.26.6 4.74-1.02 1.5-2.7 3.9-3-1.86v6.9l-3.78-.78-5.76 1.14-1.14 2.64-2.34 1.98-.66 2.4-2.58 1.2 2.4 2.58 2.46 1.14.54 3.42 2.1 1.5 1.5-1.62-.48-6.48-4.38-2.82 3.66-.06 3-1.8 5.16-.84 1.44 2.88 2.76 1.44 2.64-4.38 5.46-.24 3.24-1.8.36-2.76-1.5-1.92-.36-3.12zm-7.08-26.52l-3.18-1.26-6.24-3.84 1.14 2.88 2.58 5.1-3.12.24.36 2.82 2.76 3.66h3.42l-.96-4.08 6.48 2.52.24-3.66 3.84-1.02-3.6-4.14-1.02 1.56-2.7-.78zm-311.1 45.72l-1.86-4.62-5.76 4.02-3.78-1.5-.42 1.2.24 2.34-.36 1.14.24 1.44-1.02 6.12.18.54 3.66.6 1.26-1.2.66-1.38 2.4-.48.42-1.32 1.02-.6-3.66-3.84 6.24-1.86.54-.6zm73.32-86.28l-5.4-.78-1.86 1.5-6.48 1.32-1.02.9-10.08 1.26-.84 1.26 3 2.46-2.34.96.9 1.02-2.16 1.74 5.64 2.52-.12 1.8-4.14-.18-.48 1.08-4.38-1.92-4.56.12-2.58 1.5-3.96-1.44-7.14-2.58-4.5.12-4.86 3.96.42 2.76-3.6-2.16-1.26 4.08 1.02.72-1.02 2.82 3.18 2.58 2.16-.12 2.52 2.46.12 1.92 1.68.6 2.64-.78 3-1.62 2.82.9 2.94-.18 1.14 2.34.36 3.6-2.76-.54-2.4.6.54 2.7-3-.36.36 1.2 1.92.96 2.22 3.3 3.84 1.26.9 1.26-.42 1.56.42.9 1.08-1.2 3.3-.78 2.28 1.02 2.94 2.94 1.5-.18-3.72-13.68 7.14-2.16.66.3 5.46 2.7 2.88 1.38 3.9 3.3 3.42-.54 5.16-.3 4.5 2.7.9 3.72 1.5.06 1.56 3 3.96.12 1.38 1.8h1.14l.54-2.7 3.24-2.58 1.5-.72.18-1.62 1.86-.48 5.46 1.26-.3-2.16 1.5-.78 4.86 1.56.96-.42 5.16.12 4.68.36 1.98 1.32 2.1.54-1.02-2.1 1.74-.96-5.22-6.42 5.4-1.44 1.2-.84-.6-6.66 6.42 1.2.96-1.68-1.5-3.72 2.28-.36 1.08-2.52-2.58-2.28-3.6.54-1.98-1.56-2.34-.72-2.46-2.16-1.92-.66-3.72.96-4.98-2.16-.66 1.98-10.86-9.3-4.98-2.82.48-1.14-5.46 3.42-2.64.24-.72-1.98-4.2-1.26-2.58.9-2.58-3.78zm-58.26 194.04h-2.28l-1.38-1.26-3.06 1.56-.96 1.62-2.28-.3-.72-.42-.78.06h-1.08l-4.32-3.24h-2.34l-1.2-1.26v-2.16l-1.74-.66-2.28 2.52-2.04 2.28 1.62 2.64.42 1.92 1.56 4.38-1.26 2.82-1.62 2.52-.96 1.56v.18l.84 1.44-.24 2.82 12.12 7.8.24 2.22 4.8 3.78 1.32-1.26.72-2.52 1.08-1.56.54-2.7 1.26-.24.84-1.62 2.4-1.5-1.98-3.18-.12-13.92 2.88-4.32z"/><path d="M718.36 216.84l-2.22-.3-1.92 3.66 2.94.36 1.02 1.86 2.28-.12-1.44-2.88.18-.9-.84-1.68zm90.96-47.28l-2.1-.54-1.98-1.32-4.68-.36-5.16-.12-.96.42-4.86-1.56-1.5.78.3 2.16-5.46-1.26-1.86.48-.18 1.62 1.08.36-1.86 2.46 2.76 1.38 1.92-.96 4.26 1.98-3.12 2.7-2.46-.36-.84 1.2-3.54-.66.36 2.22 3.24-.3 4.26 1.2 5.7-.54.6-.9-.66-.9 2.4-1.8 1.92-.72 3.42.54.36-2.4 3.84-.48.6-1.44 4.08-2.04.12-.84zm112.56 107.52l.12-3.84-1.2-2.7-2.88-2.64-2.58-3.36-3.42-4.5-4.38-2.28.78-1.38 1.98-1.02-1.8-3.3-4.08-.06-2.04-3.42-2.4-3.06-1.62.6 1.14 4.32-1.74-.06-.42-.9-2.46 2.46-.48 1.44 1.56 1.14.54 2.28 2.28.18-.24 4.02.6 3.42 3.18-2.28 1.08.72 1.92-.12.48-1.32 2.58.24 2.94 3.12.78 3.78 3.12 3.3.3 3.24-.9 1.74 2.94 1.44 1.2-2.58 3.12 1.38zM638.26 114.06h-2.28l-2.64-1.32-1.26-.42-2.22.6-.12 2.76-2.16.06-2.64-2.7-2.4 1.26-1.02 2.22.3 2.7 3-1.14 4.74.24 2.64-.36.54.78 1.5.24 3 1.74 1.56-.6 2.76-1.38-1.26-2.16-.6-1.68-1.44-.84zm39.42 90.24l.54-2.1 1.56-1.44-.72-1.5-1.44-.18-.06.12-1.26 2.7-.78 3.12h1.08l.24-.66.84-.06zm-23.82 243.6l.66-1.2 1.86-.6.66-1.26 1.14-1.86-1.02-1.14-1.38-1.2-1.56.78-1.86 1.5-1.92 2.4 2.22 2.94 1.2-.36zM534.64 301.98l-.96-.12-.66 1.56-.96-.06-.66-.78.24-1.56-1.38-2.34-.9.42-.72.12-1.56 1.8-1.56 2.04-.18 1.14-.78 1.2 2.22 2.46 2.88 2.1 3.06 2.88 3.42 1.86.9-.06.3-3.12.3-.48-.12-1.5-1.38-1.62-1.08-.24-.96-1.08.72-1.68-.36-1.86.18-1.08zm109.44-91.14l-.9-1.26-3.24-.48-1.08-.66h-1.2l-1.2-1.68-4.38-.78-2.16.48-2.22 1.8-.9 1.86.9 2.88-1.44 1.8-1.5.96-3.54-1.86-4.62-1.62-2.94-.72-1.68-3.42-4.32-1.68-2.7-.66-1.32.36-3.84-1.32-.06 2.94-1.56 1.08-.9 1.2-2.22 1.5.42 1.56-.24 1.62-1.56.84 1.14 3.36.24 1.8-.54 3.12.3 1.74-.36 2.1.3 2.4-1.26 1.56 2.04 2.82.12 1.62 1.2 2.16 1.56-.72 2.58 1.74 1.5 2.4 5.28 1.68 1.86 2.1 2.34-1.44 3.24-2.1 13.38 7.32 13.44 7.32v-1.62h3.78l-.3-7.62-.6-14.04-.78-13.62-1.2-3.06.72-2.34-.66-1.62 1.08-1.8z"/><path d="M591.64 152.16v-.12l.06-.12-.06-.06-.06-.12-.06-.06v-.12l-.06-.06v-.12l-.06-.06-.12.36v.3l.06.12h.06l.24.06zm45.6-31.44l-3-1.74-1.5-.24-.54-.78-2.64.36-4.74-.24-3 1.14 1.02 3 3 .66 1.32.54-.12 1.02.36.9 1.5.36.84 1.14h2.76l2.88-1.32.3-2.04 2.1-1.2-.54-1.56zm-56.04 22.44l.12-1.62-.6-.84-.78.12-.24 2.1.66.3.84-.06zm52.2 27.72l-1.68-1.2-1.44.06-1.02.24-.66.12-1.74.6-.06.72h-.42l-.24 1.26.54 1.56 1.38.96 1.98-.36 1.14-.78 1.68.06.42-.66.6-.12-.48-2.46zm97.02 212.16l-.66-2.52-.84-1.62-1.08-1.62-1.2 1.68-.18 2.28-1.98 2.7-1.38-.48.36 1.62-1.08 1.92-2.88 2.34-2.04 2.22h-1.44l-1.32.72-1.86.78-1.68.12-.6 2.46-1.32 2.1.06 3.54.48 2.4.66 1.8-.48 2.46-1.74 2.88-.12 1.26-1.56.66-.78 2.76.12 2.76.96 3-.06 3.42.72 1.98 2.52 1.38 1.8 1.02 3-1.62 2.76-.9 1.86-4.44 1.68-5.34 2.58-7.2 1.98-5.28 1.62-4.44.48-3.24.96-.9.42-1.62-.48-2.82.72-1.14.96 2.28.66-1.14.48-1.86-.78-1.74-.3-4.62zm-51.9 1.86l.06-1.38-.72-1.14.06-1.68-.9-2.82 1.02-2.1-.06-4.62-1.14-2.46.12-.42-.66-1.02-3.24-.72 1.56 1.68.72 3.24-.6 1.08-.72 3.06.54 3.18-1.08 1.32-1.14 3.54 1.74 1.02 1.8 1.8.96-.36 1.26.96.18 1.56-.78 1.74.12 2.7 2.04 2.4 1.14-2.7 1.5-.78-.06-4.92-1.32-2.76-1.14-1.2h-.18v.48l.66.18.6 2.04-.12.48-1.14-1.5-.6.96-.48-.84zm224.64-77.28l-2.82-1.68-.54.66.84 1.62-.24 2.82 1.26 2.04.6 3.18 2.04 2.58.48 1.92 4.02 3 3.24 2.88.48-.06v-.36l.18-.36.36-.06.48.06.3.18.24.36.36-.06.06-1.26-1.38-3.36-1.26-1.08-.3-2.28-.36-1.26.3-1.74-.3-2.58-1.56-2.58-2.1-2.28-.78-.36-1.02 1.56-2.22.48-.36-1.98zm59.4 6.6l-.72-1.86 2.28-.24.18-1.44-2.88-1.2-2.28-1.02-.24-1.68-1.86-1.92h-1.38l-1.5 3-2.46 2.64-.06 1.86-.06 2.46-1.62-.12-.66 1.32-1.62-1.98-1.56 2.4-2.28 3-4.02.84-1.44.72-.54 3.24-2.64.72-2.46-1.32.6 2.58 2.34 2.1 2.16-.72 2.16.24 1.92-1.92 1.62-.36 3.24 1.08 2.7-.78 1.62-5.34 1.2-1.32 1.02-4.32h3.84l3 .6 2.4-1.26zm-152.1 4.74h0l.06-.18-.06-.06h-.06l-.06.12v.12h.12zm.18-3.54l.06-.12v-.24l-.06.06-.06.12v.06l-.06.06v.06h.12zm-233.46-57.24l-3.66.36-.06-2.4-1.56-.66-2.04-1.08-.78-1.8-11.16-8.28-11.04-8.34-5.04.06 1.44 16.44 1.44 16.5.6.48-.78 2.64-13.38.06-.54.84-1.26-.24-1.92.78-2.28-1.08-1.08.12-.6 2.22-1.14.72.12 2.34.66 2.22 1.26 1.08.24 1.44-.18 1.2.18 1.38h.54l.9-.48.54.12.9.96 1.44.3.96-.84 1.08-.48.78-.54.66.12.78.84.36 1.02 1.38 1.62-.72.96-.12 1.26.72-.36.42.42-.18 1.14 1.02 1.08.42-.36.96.6 2.58.06.6-1.14.6.06.96-.42.54 1.62.78-.48 1.38-.54-.24-2.22.96-1.62-.12-1.32 2.7-3.12.48-2.64.96-.96 1.62.54 1.38-.78.48-.96 2.58-1.74.66-1.2 3.12-1.56 1.8-.54.84.72h2.16l2.16-.18 1.2-1.32 4.56-.36 2.94-.6.3-2.34 1.8-2.58-.06-8.76zm31.98-63.78l-.42-.42-.3-.06.06.36.24.24h.3l.12-.12zm-.84-.72h0v-.12l-.18-.06-.24.06.06.06.18.12.18-.06z"/><path d="M359.8 275.94l-.12-.42-.06-.12-.12-.18.06-.18v-.06h-.12l-.18-.3-.36-.18h-.18l-.12.12v.18l.18.54.12.12.3.12-.24.24v.06l.06.18h.54l.12.18.06-.06.06-.24zm187.08-39.96l-12.18-9.3-.12 5.82-10.74-.18-.12 9.78-3.12.3-.84 1.98.54 5.52-12.96-.06-.72 1.32 1.68 1.62.84 1.8-.42 1.92.36 1.92.3 3.78-.48 3.54-1.02 1.92.24 2.04 1.2-1.2 1.62.3 1.68-.84h1.86l1.56 1.08 2.22 1.02 1.92 2.82 2.16 2.64 1.14-.72.6-2.22 1.08-.12 2.28 1.08 1.92-.78 1.26.24.54-.84 13.38-.06.78-2.64-.6-.48-2.88-32.94 5.04-.06zM753.82 409.5l.18-.18.12-.24.18-.18.06-.42-.12-.48-.24-.42-.3.06-.18.24-.12.3-.3.18-.06.18-.12.42-.06.24-.12.06v.12l.18.18.48.06.42-.12zm-39.6-28.68v-.18l.12-.3v-.06l.06-.3-.18-.18h-.12l-.12-.18-.18.18.18.3-.06.18-.06.24.06.24.12.12.18-.06zM648.1 157.98l.72-.42.3-1.26.66-1.2-.3-.66.6-.3.36.54 1.8.12.72-.3-.6-.36.12-.6-1.2-.9-.66-1.56-1.14-.66v-1.26l-1.5-.96-1.2-.18-2.34-1.14-1.92.36-.66.54.96.36 1.08 1.14 1.14 1.56 2.04 2.22.36 1.62-.12 1.62.78 1.68zm213.12-18.72L859 136.5l-3.96-.9-2.88-.48-4.14-1.5-.78 3.84 2.4 2.16-1.44 2.58-4.74-.96-3-.12-2.82-1.74-3.06-.06-3.18-1.14-3.54 1.74-3.96 3.24-2.82.6 1.98 2.64 3.42 1.98 4.86 1.38 3.48 3 .78 4.38 1.8 1.62 3.84.6 4.32.54 4.74 2.28 2.04.42 2.94 3.42 2.82 2.16 3.3-.06 6.72.78 3.84-.48 3.3.54 5.58 2.28 3.72-.06 1.92 1.2 2.64-1.98 4.32-1.32 4.5-.12 2.94-1.32 1.14-1.98 1.5-1.2-1.14-1.26-1.74-1.38.24-2.4 1.92.3 3.54.78 1.86-1.98 3.78-1.44.84-2.46 1.44-1.08 4.08-.48 2.58.42-.42-1.32-4.32-2.58-3.06-1.2-1.5 1.38-3.24-.6-1.44.48-1.62-1.56-.18-3.72-.36-2.76-3.3.3-2.34-1.26-1.98-.42-2.7 2.64-3.48.6-2.16.96-4.02-.6h-2.7l-2.94-1.86-3.9-1.8-3.24-.48-3.42.48-2.34.66-5.04-1.56zM625 167.88l.24-.36-1.2-.72-1.08-.42-.48-.48-.9-.66-.54.36-.9.84-.24 2.04-.3.6 1.38.72.96 1.26.66.24-.3-1.14 1.2-1.86.24.72.78-.3.48-.84zm-268.92 99.54l-.06-.3h-.06l-.12.24v.18l.18.06.06-.18zm200.04-70.38l-1.38-.06-3.3-.84-3 .24-1.86-1.62h-2.34l-1.08 2.34-2.22 4.02-2.4 1.56-3.24 1.74-2.1 2.58-.54 2.04-1.26 3.24.66 4.74-2.82 3.18-1.62 1.02-2.64 2.64-3.06.42-1.68 1.44-.06.06-2.16 3.9-2.22 1.38-1.26 2.4-.12 1.98-.96 2.28-1.14.6-1.86 2.4-1.2 2.7.18 1.32-1.14 1.98-1.32 1.02-.18 1.8h.06l7.44-.3.42-1.38 1.38-1.74 1.2-5.28 4.68-4.08 1.68-4.86 1.02-.24 1.14-3 2.76-.42 1.14.54h1.5l1.08-.9 2.04-.12-.06-2.04h.48l.06-4.5 5.34-2.82 3.24-.6 2.64-1.02 1.26-1.92 3.78-1.5.18-2.82 1.86-.3 1.5-1.44 4.2-.6.6-1.5-.84-.84-1.08-4.02-.18-2.34-1.2-2.46zM698.8 372.42l-.48-1.74-2.76 2.22-3.72 1.5-1.98-.06-1.26 1.14-2.34.06-.84.48-4.02-1.08-1.26.18-.96 3.6.42 4.38h.18l1.14 1.2 1.32 2.76.06 4.92-1.5.78-1.14 2.7-2.04-2.4-.12-2.7.78-1.74-.18-1.56-1.26-.96-.96.36-1.8-1.8-10.26 3.12.18 2.7.18 1.44 2.76-.06 1.56.78.66.96 1.56.3 1.68 1.2-.18 4.86-.78 2.64-.3 2.82.48 1.14-.48 2.22-.54.36-.96 2.76-3.72 4.32 1.98 8.1-.84 4.26.24 1.38.36 1.74.18 1.68h2.46l.42-1.98-.84-.3-.18-1.56 1.56-1.44 4.08-2.04 2.76-1.32 1.5-1.38.54-1.56-.72-.66.66-1.8.3-3.72-.6.18v-1.14l-.48-2.22-1.44-2.88.42-2.76 1.38-.84 2.46-2.76 1.32-.66 4.02-4.08 3.84-1.86 3.12-1.5 2.22-2.34 1.44-2.64 1.14-2.76-.54-1.86.12-5.94-.24-3.36.24-3.78zm198.54-122.94l-.36-1.56-2.28 1.08-1.5-.72-2.7-1.44.48-3.12-2.22-.78-1.38-3.48-3.36.6-.42-4.5 2.46-3.18-.48-3.18-.78-2.94-1.62-.9-1.62-2.22-1.8.24.54 1.44-.96.72.78 2.34-2.46-.66-3.66 2.64.54 2.16-1.26 3.24.18 1.86-.9 3.12-2.76-.84.54 3.96-.54 1.26.54 1.62-1.44.9.3 2.76-1.26-.6.66 3.06 2.76 3.12 2.04.54-.24 1.32 3.24 4.44 1.14 3.54-.54 4.74 2.16.9 1.92.36 3.48-2.76 1.92-1.86 1.86 3.12 1.2 4.86 1.56 4.56 1.56 1.98.12 4.14 1.32 2.28-.78 2.88.54 2.88 1.32-3.96 1.56-3.54-1.68-3.48-.12-1.8-.6-2.1-2.52-3.06-1.02-1.92 1.02-.66.84-3.36-1.74-2.52-2.46-2.76-2.1-3.36 1.32-.66.9-4.14 2.34-.18 1.68-1.68 1.8-.84.48-1.44 2.46-2.46zm-257.1 148.74l-6.18 1.5-8.04-.54-2.22-1.8-13.5.18-.54.24-1.92-1.74-2.16-.06-1.98.6-1.62.72.12 2.94 2.64 3.72.66 2.4 1.68 4.62 1.62 3.12 1.26 1.56.36 2.1v4.56l.96 5.88.72 2.76.6 3.72 1.14 2.82 2.34 2.88 1.62-1.92 1.26 1.08.48 1.62 1.44.3 1.98.72 1.74-.3 3-1.92.66-14.16.36-11.1 3.24-.12.54-13.62 2.46-.12 5.16-1.32 1.2 1.56 2.22-1.5h.96l1.92-.9v-.3l-1.26-.84-2.16-.24-2.76.9zM1126 333.3v-.12h-.12l-.06.12.12.12.06-.12zM850.12 224.88l-3.9-.36-3.84-.9-3-1.68-2.7-.72-1.5-1.86-1.92-.54-3.84-2.46-2.82-1.2-1.14.9-1.68 1.74-.54 3.54 3.42 1.5 3.48 1.86 4.62 2.1 4.56.54 2.28 1.92 2.58.36 4.08.9 2.76-.06.06-1.5-.9-2.46-.06-1.62zM580.3 134.34h1.74l.66-1.38.6-3.36-.6-1.2-2.34-.12-3.9 1.56-2.34 5.34-1.5 1.02 2.16.3 2.64-.78 1.86 1.62 1.68.84-.66-3.84zm535.08 283.32v-.18l-.24-.12-.12.3v.06l.12.06h.12l.12-.12zm2.76-4.56h0l-.06-.24.06-.12-.24.12-.36.12.06.48-.06.24.18.06.06.18h.12l.42-.12.18-.66h-.24l-.12-.06zm-1.8-1.02l.18-.3.06-.12-.12-.42-.18-.18.18-.6-.06-.12-.24-.12-.54.18-.06.12.3.06.12.12-.3.42-.3.06.06.3.12.24.42.12.18.24h.18zm-2.34-1.74l.18-.18.18-.24-.06-.06v-.18l.12-.24.18-.06-.12-.12-.12-.06v.18l-.18.42-.06.18-.3.36h.18zm-7.38-1.74l-.36-.42-.06.12-.06.24v.18l.18.12.06.12-.06.3v.24l.36.54.06.42.18.36.3.3.24.3.48.84.12.3.24.18.6.72.24.24.24.12.54.42.36.18.18.3.84.42.06.12v.18l.06.18.3.24.36.18.12.24.18-.06.18.06.54.42.24-.06h.18l.3-.12.18-.24-.06-.66-.3-.3-.42-.24-.96-1.2-.66-.6-.3-.12-.18-.24-.18-.06-.12-.18-.3-.18-.18-.36-.36-.36-.06-.18.06-.18-.06-.18-.24-.18-.12-.3-.12-.18-.24-.12-.42-.24-.96-1.14-.42-.36-.42.12-.36-.24zm-13.2-3.6l.12-.24.06-.48-.12.24-.12.6.06-.12z"/><path d="M1098.16 487.68l.54-1.56-3.48 1.74-2.04 2.04-1.92.96-3.54 2.76-3.36 1.92-4.2 1.92-3.3 1.44-2.58.66-6.78 3.66-3.84 2.76-.66 1.38 3.06.24.9 1.26 2.7.06 2.4-1.08 3.78-1.68 4.86-3.72 2.82-2.46 3.72-1.38 2.4-.06.36-1.74 2.76-1.5 4.2-2.7 2.52-1.74 1.26-1.56.3-1.56-3.36 1.5.48-1.56zm17.28-18.3l1.14-3.42-1.86-1.02-.48-2.16-1.38.3-.24 2.76.48 3.42.54 1.62-.54.66-.36 2.64-1.44 2.46-2.52 3-3.18 1.32-1.02 1.44 2.22 1.5-.48 2.1-4.14 3.06.84.54-.24.96 3.54-1.5 3.54-2.52 2.7-2.04.96-.72.9-1.62 1.68-1.2 2.28.12 2.52-2.28 3.06-3.42-1.26-.48-2.76 1.5-1.92-.3-1.74-1.26 1.38-2.94-.72-1.08-1.74 2.64.24-4.08zm-829.98-195.3l-1.14-.12-.54.54-1.2.48h-.84l-.78.48-.66-.18-.54-.54-.36.12-.48.9-.3-.06-.18.78-1.26 1.08-.66.42-.36.48-.9-.78-.84 1.02h-.72l-.78.12-.12 1.86h-.48l-.48.9-1.08.18-.24.24-.54-.6-.42.6 1.56 1.74 1.32 1.2.6 1.26 1.5 1.56 1.08 1.2.54-.48 2.1 1.02.84-.48 1.02.3.48.78 1.02.24.84-.78-.48-.66-.06-1.02.72-.96-.12-1.02.42-1.62.54-.42.06-1.68-.12-1.02.24-1.68.54-1.5.84-1.32-.18-1.38.24-.84.36-.36zm322.32-30.72l-5.28-1.68-11.16 7.32-9.48 7.5-4.68 1.68.06 8.76-1.8 2.58-.3 2.34-2.94.6-4.56.36-1.2 1.32-2.16.18-.3 1.86.48 1.74 1.86 2.46.12 1.86 3.84.84-.06 2.64 1.14-1.14h1.2l2.58 2.22.18-3.42.96-1.56.48-2.16.84-.84 3.6-.48 3.36 1.44 1.26 1.44 1.74.06 1.56-.9 4.08 1.98 1.68-.12 1.98-1.62 1.98.12.96-.54 1.8.24 2.58 1.08 2.58-2.1.78.12 2.34 4.2.6-.12.12-1.2.96-.24.3-1.74-2.16-.12v-2.46l-1.44-1.38 1.38-5.04 4.14-3.6.12-4.98 1.08-7.74.66-1.62-1.38-1.32-.12-1.26-1.2-.96-.96-5.94-2.34 1.44-1.86-2.1z"/><path d="M610.48 283.62l-.6.12-2.34-4.2-.78-.12-2.58 2.1-2.58-1.08-1.8-.24-.96.54-1.98-.12-1.98 1.62-1.68.12-4.08-1.98-1.56.9-1.74-.06-1.26-1.44-3.36-1.44-3.6.48-.84.84-.48 2.16-.96 1.56-.18 3.42-.12 1.26.72 2.28-.66 1.5.36 1.02-1.62 2.4-1.02 1.14-.6 2.4.06 2.46-.18 6.12h5.52l2.34 2.52 1.14 2.76 1.8 2.34 2.7.12 1.32-.84 1.26.18 3.48-1.38.84-2.7 1.62-3.66.96-.06 1.98-2.22 1.26-.06 1.92 1.56 2.34-1.32.3-1.56.72-1.56.48-1.92 1.8-1.56.66-2.7.72-.84.42-1.98.9-2.4 2.76-3 .18-1.26.36-.66-1.38-1.56zm353.34-114.24h0l-3.3-2.16.06 2.1-3.78 1.56 1.62 1.98-2.76-.12-2.16-1.2-.6 2.64-2.28 2.04-1.26 2.4 1.98 1.02 2.04.42.48.6.24 2.1.66.72-.54.42-.06 1.74 1.14.6.96.36.48.72.78-.3v-.78l1.86.78.06-.36 1.44.12.42-1.74 2.1-.18 1.26-.24-.06-.96-2.58-1.68-1.56-.6.12-.42-.72-1.68.78-1.02 1.74-.6.6-1.14.18-.66 1.14-.84-1.68-2.7.18-1.26.54-1.2 1.32.18-.84-.66zM630.28 67.86l-4.14.66-4.38-.18-3.06 2.64-4.02-.18-5.1 1.38-6.06 4.08-3.84 2.4-5.28 6.42-4.26 4.68-4.86 3.48-6.72 2.88-2.34 2.16 1.14 8.04 1.14 3.78 3.84 1.8 3.6-.84 5.1-4.08 1.98 2.16 1.02-1.98 2.04-2.4.54-4.14-1.86-1.74-.6-4.56 1.38-3.18 2.58.06.78-1.32-1.08-1.14 3.42-4.74 2.04-3.66L604.6 78l2.4.06.36-1.86 4.74.54v-2.1l1.5-.18 1.26-.84 3.06 1.74 3.18-.18 2.82.78 2.04-1.44.66-2.34 3.48-1.08 3.42 1.26-.48 2.28 1.92-.3 3.84-1.32-3.24-1.98 2.88-.84-8.16-2.34zm-13.56-19.98l-3.36-.6-1.14-1.02-4.32.54 1.56.9-1.32.72 4.02.66 4.56-1.2zm-15.24-4.98l-2.88-.96-3.06.12-.6.9h-3l-1.32-.9-5.58.96 1.92 2.1 4.56 2.28 3.42.84-1.8 1.02 5.04 1.74 2.64-.12.54-2.34 1.8-.54.72-2.04 5.1-1.08-7.5-1.98zM616 41.04l-5.46-.6-1.92.72-3.18-.6-6.24.72 2.58 1.2h3.06l.54.78 6.36.42 6.06-.3 2.58-1.44-4.38-.9zm141.6 209.64l1.26-1.2.48-1.08.96-2.28-.06-.84-1.26-.48-.96-1.26-1.74-2.22-1.98-.66-2.46-.54-1.98-1.38-1.74-2.58h-1.68l-.06 2.52.66.48-1.44.78.18 1.56-.84 1.56.06 1.56 1.74 2.7-1.56 7.62-9.66 3.84 3.12 6.3 1.26 2.64 1.5-.18 2.16-1.32 1.86.36 1.5-1.08-.12-1.5 1.26-.96h2.04l.72-.78.12-1.86 1.98-1.44h1.56l.24-.48-.6-2.52.36-1.92.6-.9 1.5.18 1.02-2.64zm-9.96-18.24l.12-1.56-.42-.36-.78 1.32.78 1.32.3-.72zm62.34-36.66l-5.64-1.56-1.74-3-2.82-1.8-1.68.42-1.44.72-3.48.48-3.18.78-1.44 1.68 1.14 1.68.84 1.92-1.2 1.62.48 1.5-.54 1.38-3.06-.12 1.8 2.52-1.8.96-.9 2.28.66 2.28-1.02 1.08-1.26-.36-2.4.54-.12 1.02h-2.4l-1.38 2.16.48 3.24-3.96 1.56-2.28-.3-.54.84-1.98-.48-3.18.54-5.76-1.92 1.92 1.98 1.68 2.34 3.36 1.62.6 3.42 1.62.6.54 1.74-4.44 1.98-.72 4.44 4.56-.54 5.34-.06 5.94-.72 2.94 2.88 1.26 2.76 2.52.96 1.92-2.52h7.2l-1.08-3.3-2.1-1.92-.78-2.94-2.4-1.74 2.94-3.96 3.84.3 2.7-4.02 1.26-3.9 2.34-3.78-.6-2.7 2.22-2.22-3-1.86-1.74-2.58-1.92-3.36 1.14-1.68 5.1.96 3.42-.6 2.22-3.24zm-132.84 11.88l-1.2-.54-.42 2.58.84.42-.72.48-.06 1.02 1.44-.48.36-1.14-.24-2.34zM303.1 298.2l-1.2-1.08-1.02-1.14-1.5-.66-1.86-.12.18-.36-1.86-.24-1.2 1.14-2.1.78-1.5.96-1.62.3-.9-.96-.3.3-1.38-.18.12-.78-1.14-1.38-1.32.36-.06 1.5.66.6-.48.42.06.72-.3.78-.24.72.36.6.18-.84h1.44l.84.42 1.38.3.6 1.5 1.08.24.48-.66.48 2.28 1.56-.18.54-.54.9-.54-1.5-2.04.36-.78.78-.18 1.38-.96.72-1.32 1.5-.24 1.62 1.08.6 1.26.84.24-.9 1.02.6 2.1 1.08 1.08.54-1.86 1.08.3.66-1.14-.66-2.28.42-.54zm784.32 59.16l.54-1.08-1.44-1.32-1.5-2.4-.96-.9-.3-1.14-.48.42.54 2.88 1.32 2.4 1.32 1.5.96-.36zm-12.72-5.16l1.26-2.34.24-2.1-.66-.6-2.04.06.24 2.22-1.98 1.38-1.02 1.32-1.92.3-.24-2.04-.48.06-.6 1.86-1.86.3-3-.54-.36 1.14 1.86 1.08 2.7 1.14h1.74l3.72-1.86.6-1.08 1.8-.3zm-16.68 7.32l-.54-2.58 3.12-.42-.66-1.98-5.46-2.4-.36-2.22-1.74-1.92-2.22-1.98-6.12-2.16-5.76-2.64-.6 12.42-.9 12.48 3.42.12 1.86.66 2.76-1.32-.18-2.82 2.16-1.26 2.94-1.08 4.2 1.68 1.44 3.36 1.74 2.1 2.34 2.4 3.3.6 2.88.42.66.96 2.28-.24.48-1.08-3.36-1.62 1.08-.72-2.52-.66.3-1.68-1.92.12-1.8-4.08-2.82-2.46zm20.82-11.04l-.3-1.98-1.2-1.26-1.26-1.56-1.38-.9-1.14-.84-1.74-1.08-.96.9 2.34 1.14 1.86 1.62 1.44 1.26.72 1.44.48 2.28 1.14-1.02z"/><path d="M327.58 347.7l-1.74-2.04-1.02-.06 2.1-3.9-2.64-1.8-1.98.36-1.26-.66-1.8 1.02-2.52-.48-2.04-4.02-1.62-1.02-1.08-1.8-2.22-1.8-.9.36.48 2.94-1.02 2.46-3.6 4.02-4.02 1.5-1.98 3.3-.54 2.58-1.86 1.56-1.5-1.92-1.38-.42-1.38.3-.12-1.38.9-.9-.42-1.62-2.64 2.4-.96 2.7 1.8 3.66-1.02 1.68 2.46 1.56 2.7 2.46 1.2 2.82 1.44 1.74 3.6 7.62 3.72 7.02 3.24 5.04-.48 1.08 1.68 3.18 2.76 2.34 6.42 4.14 6.96 3.84.42 1.56 3.54 2.22 1.62-.96.72-1.98 1.68-4.14-1.68-3.18.66-1.26-.72-1.44 1.14-1.92-.18-3.24-.06-2.7.66-1.26-3.3-6.18-1.8.66-1.56-.42-.12-5.82-2.64 2.28-2.94-.12-1.38-2.04-2.22-.18.6-1.68-1.98-2.28-1.56-3.48.9-.66-.06-1.62 1.98-1.14-.42-2.04.78-1.32.24-1.8 3.72-2.58 2.76-.72.42-.6 3.06.18zm660.18-48.54l-.36-1.38-.48-1.92-2.88-1.8.48 2.94-2.34.12-.42 1.68-2.52 1.02-1.32-1.68-1.68 1.44-2.04 1.02-1.14 3.24.66 1.14 2.34-2.16 1.62.18.9-1.62 2.28 1.8-.9 1.86 1.14 2.76 4.08 2.22.84-1.8-1.26-2.82 1.44-1.92 1.5 3.84.9-3.48-.36-2.1-.48-2.58zm-8.7-7.08v-3.66l-2.16 3.66.3-2.52-1.8.18-.18 2.4-.72 1.08-.6 1.02 2.28 2.64.96-1.14.84-2.4 1.08-1.26zM961 295.74l1.56-2.64 2.04-2.1-.9-3.12-1.44 3.78-1.74 2.64-2.28 2.4-1.44 2.64 4.2-3.6zm10.44-9.84l.72 1.8-.06 1.98.3 1.74 1.98-1.14 1.44-1.62-.12-1.56h-2.16l-2.1-1.2zm12-1.02l-1.08-1.44-3.24-.06 2.4 2.88.18 1.44-1.98-.3.72 2.34 1.02.18.42 2.7 1.5-.84-1.02-2.4-.24-1.26 2.7 1.02-1.38-4.26zm-13.74-3.48l-1.32-1.38-2.88-.12 2.04 2.88 1.68 1.92.48-3.3zm-3.84-20.76h-1.98l-.54 3.48.66 5.94-1.56-1.2.72 3.6.72 1.68 1.98 2.22.24-1.38 1.08.84-.9 1.02.06 1.56 1.74.84 3-.54 2.4 2.28.66-1.44 1.5 2.04 2.88 1.86.12-1.74-1.2-.96.06-2.04-4.5-2.16-1.38.48-1.86-.42-1.2-3.06.06-3.06 1.8-1.26.36-3.18-1.62-2.76.24-1.56-.42-.96-.9.96-2.22-1.08zm-824.34 163.8v-.12l-.06-.12-.12-.06-.06.06.06.12.12.12h.06zm477.12-299.46l-2.76-.06-.3-.84-2.88-.66-3.42 1.26-4.26 1.68-1.86 1.02.84 1.86-.72.96 1.2 1.32.84 1.98-.06 1.26 1.38 2.34 1.44 1.14 2.22.36-.06 1.02 1.62.72.36-.9 2.04.36.42 1.2 2.16.18 1.56 1.86.18.24 1.14-.54 1.62 1.32 1.68-.78 1.44.36 2.04-.48 2.94 1.38.66.24-.96-1.68 2.28-3.06 1.38-.42.18-1.08-1.86-3.18-.3-1.62-1.14-1.74 1.62-.72-.18-1.44-1.02-1.38-.36-1.62-.84-1.14-1.5-.36-5.22.06-3.54-.42zm-79.08 64.56l-.24-1.26 1.2-1.5.48-1.02-1.08-1.14.96-2.58-1.2-2.28 1.32-.3.18-1.8.54-.54.12-2.94 1.44-1.02-.78-1.86-1.8-.12-.54.48h-1.8l-.72-1.86-1.26.54-1.14.96.06 1.26.54 1.32.06 1.62-.78 2.28-.24 1.5-1.32 1.38-.36 2.52.72 1.44 1.38.36.24 2.4-.6 3.06 1.68-.42 1.62.54 1.32-1.02zm-202.08 72.84v-.06h.06v-.06l.06-.06v-.06h-.3v.12l.12.06.06.06zm8.16-.18l.42-.12v-.06l-.24-.06h-.36l-.3.12.06.12h.42zm-2.22-1.32l-.06-.12h-.12l-2.1-.06-.78-.12-.36.12-.06.24-.12.12-.18.12.06.18.18.36-.18.9.18.12.42-.06.36.12.24-.06.24-.12.54.06.3-.06.36.18.24-.06.12.06h.54l.54-.12.48-.3.18-.3.24-.18.36-.24v-.54l-.42-.06-.36-.18-.66-.06h-.06l.06.12h-.06l-.12-.06zM731.8 237.3l.48-2.28-.3-2.22-1.14-1.2-.84.42-.66 1.98.48 2.82 1.08.72.9-.24zm15.6 175.44l.12-.24.06-.48-.24-.48-.24-.42-.24-.12-.48-.06-.42.18-.36.54.24.66.12.18.66.36h.3l.48-.12z"/><path d="M641.86 147.78h-1.26l-.6.9-2.16.36-.96.54-1.44-.9h-1.92l-1.92-.42-1.14.78-1.74.78-1.14 2.52-1.56 2.58-2.28.66 1.74 1.5.48 1.14 1.92.9.42 1.5 1.86 1.08.84-.78.84.42-.66.66.6.6 1.08 1.56 1.14-.3 2.4.6 4.5.18 1.38-.96 3.48-.84 2.4 1.32 1.8.42.24-4.44.96.3 1.38-.78-.24-.96-1.44-.66-1.32.6-1.44-.66-.78-1.68.12-1.62-.36-1.62-2.04-2.22-1.14-1.56-1.08-1.14-.96-.36zm23.7 187.86l-1.98 1.14-.84-.36-.96 1.08-.12 2.28-.48.24-.36 2.1 2.1.3 1.02-2.16 1.8.24.96-.48.24-2.22-1.38-2.16zm-310.62-69.72v-.18l-.12-.12h-.18v.3l.12.12.18-.12zm-.3-.42l-.06-.12-.06-.06-.12-.24-.24-.24-.12.06-.06.12v.06l.18.18.24.06.12.24.12-.06zm4.8 13.02l.06-.72-.06-.3-.12.06-.18.24-.24.36-.06.18v.36l.36.24.24-.42zm-1.74 4.32h0v-.06h.06v-.12h-.06v.12h-.06l.06.06zm.42-1.14l.06-.12.06-.06-.06-.06v.06l-.12.06v.12H358l.06.06.06-.06zm.18-.66l.18-.12.06-.36-.06-.24h-.12l-.18.06-.12.18-.06.3.3.18zm227.16 49.8l.3-.48v-.3l-.18-.3h-.24l-.3.24-.18.24v.18l.06.42.06.18.18.12.3-.3zm2.58-5.52l.12-.24v-.12l-.12-.12-.12.06-.18.3.06.12.12.12.12-.12zM714.22 220.2l-6.12-.3-10.02-7.62-5.1-2.7-4.02-1.02-.54.6-6.24 1.86 3.66 3.84-1.02.6-.42 1.32-2.4.48-.66 1.38-1.26 1.2-3.66-.6-.3 1.5v1.32l-.36 2.1h1.62l1.92 2.64 2.22 3.06 1.5 2.82 1.02.9 1.02 1.98-.12.84 1.26 2.22 1.8.78 1.68 1.5 2.16 4.2v2.28l.54 2.64 2.4 3.66 1.5.6 2.46 2.64 1.14 3.12 1.92 3.18 1.8 1.38.36 1.5 1.08 1.14.54 1.68 1.38-1.26-.42-1.62.72-1.86 1.44 1.02.9-.36 3.84-.12.6.42 3.24.36 1.26-.18.96 1.26 1.5-.6 2.1-4.02 3-1.74 9.42-1.44 9.66-3.84 1.56-7.62-1.74-2.7-.6.78-10.08-1.92-1.56-3.84-.24-.9-.72-1.44-.9.24-1.08-.72-.6-.96-.54-1.26-1.02-1.08-.6-1.26.24-1.26-.36-1.62-2.4-1.56-.72-1.38-1.74-.84-1.62-3.3-2.28.12-1.02-1.86-2.94-.36zm-191.88 55.32l-2.16-2.64-1.92-2.82-2.22-1.02-1.56-1.08h-1.86l-1.68.84-1.62-.3-1.2 1.2-.78 1.98-1.68 2.64-1.5.72 1.62 1.38 1.32 3 3.66-.12.78-.9 1.08-.06 1.26.9 1.08.06 1.08-.66.66 1.08-1.44.9-1.44-.06-1.44-.84-1.26.9h-.6l-.84.54-3-.06.48 2.94 1.8-.66 1.08.12.9-.42 6.18.18 1.62.06 2.4.9.78-.06.24-.42 1.8.3.48-.24.18-1.2-.24-1.44-1.26-1.08-.66-2.22-.12-2.34z"/><path d="M627.88 159.12l-1.92-.9-.48-1.14-1.74-1.5-1.92-.12-2.22.96.9 1.44 1.02 1.08-1.02 1.38h1.08l-.6 1.62 1.62 1.38-.3 1.74-.72.18.9.66.48.48 1.08.42 1.2.72-.24.36.72-.3.3-1.2.54-.24.48.54.6.24.48.6.48.18.66.66h.48l-.3.9-.3.42.12.3 1.02-.24 1.44-.06.42-.54-.36-.42.42-1.2 1.02-1.14-1.68-1.56-.42-1.38.66-.84-.6-.6.66-.66-.84-.42-.84.78-1.86-1.08-.42-1.5zM750.1 349.2l-.3-.48-.24.18.12.18.18.12.06.24.18.12v-.36zm-221.46-49.98l-.9.18v-1.38l-.54-1.02.12-1.08-.72-1.62-.9-1.38H523l-.78.72-.9.12-.6.84-.42 1.02-1.8 1.68.42 2.82.54 1.38 1.74 2.1 2.46 1.5.9.3.78-1.2.18-1.14 1.56-2.04 1.56-1.8zm385.2 26.82l-.3-.18-.48-.06-.36.06-.18.36v.36l1.56-.18zm-560.58-63.72h0l.12.12.18.06.06-.06v-.12h-.36zm276.18-117.78l-2.94-1.38-2.04.48-1.44-.36-1.68.78-1.62-1.32-1.14.54-.18-.24h-.9l-.36.66-.66.18-.12.84-.54.18-.06.36-.96.36-1.32-.06-.36.84-.18.48.42 1.26 1.56.96 1.14.42 2.46-.48.18-.72 1.14-.12 1.38-.6.36.24 1.32-.42.6-.9.96-.24 3.3 1.14.6-.36.42-1.5.66-1.02zm-16.8 9.66l-.72-1.26-.48-.06-.54.66-2.58.06-1.44.84-2.52-.24-.18 1.8.84 1.62-.66.3 2.1.12.48-.6 1.08.6 1.2.06-.12-1.02 1.02-.36.18-1.5 2.34-1.02zm509.82 221.64l-.12-.12-.06-.24h-.18l-.18.06.12.36h.12l.3-.06zm-21.36.48l-.06-.12-.3-.24-1.14-.78-.24-.06-.06.06-.06.18.06.12.3.06v.06l.18.12.42.12.24.18.06.3.36.12.24-.12zm19.2-3.96h0l.12-.24-.12-.06-.3-.06-.42.06-.18.12-.12.18h-.12v.12l.06.24.12-.06.12.06.3-.3h.24l.3-.06zm-14.64-1.38l-.06-.12-.12-.06-.54-.42-.3-.12h-.3l-.06.3v.18h.36l.24.12v.36l.12.12v.3l.72.54.42.24.42.06.24.12.3-.06.3.12.24-.06-.24-.18v-.24l-.3-.78-.18-.18-.3.06-.3-.12h-.24l-.42-.18zm-.24-2.94l-.36-.96-.12-.06.06.36.06.24-.06.3-.06.36.12.12.12-.12.24.3v-.54zm-5.88-1.32l-.18-.06-.24.18-.06.18-.06.42v.24l.18.42.18.3.3.3.54.06 1.02.06.54.24.54.12.24-.06.3-.12.06-.06-.06-.36-.12-.18-.24-.12-.12-.36-.3-.24-.54-.42h-.96l-.36.06-.66-.6zm1.56-1.08l-.3.12v.18l.24.06.24.12.06.18.12-.06.24.12.12-.18-.24-.3-.24-.18h-.06l-.18-.06zm-3.36.48l.18-.12v-.24h-.18l-.06-.12h-.12l-.18.12-.12.18.06.12h.24l.18.06zm-5.04-1.38l-.06-.12-.18-.12h-.12l-.3.06.06.06.36.18.18.06.06-.12zm1.86.24l.18-.12-.06-.12-.06-.3-.24.42.06.12h.12zm-.3-.54v-.24l-.12-.06.24-.18-.06-.06-.36-.12-.12.12-.12.06-.12.12-.06.3.12.24.24.12.36-.3zm-2.4.12l-.18-.24.06-.3.12-.06.12-.3-.06-.24-.12.06-.42.36-.06.18.36.48.18.06zm7.8-.78l-.12-.24v-.12l-.18-.12-.12.06-.06.18.06.12.24.18.18-.06zm3.6-.72h-.12l-.06.06h-.3l-.06.12.36.66-.18.3.24 1.32.24.72.48.48v.12l.48.3.36.78.12.06.06-.12v-.36l-.3-.66.06-.48-.12-.18V366l-.12-.48-.36-.42-.18-.06-.12-.18.12-.36.12-.12.06-.18-.78-1.14zm-9.96-.3l-.36-.12-.12-.18v-.6l-.36-.18-.18.12-.36.42-.12.24-.3.18-.06.18v.24l.24.06.18-.24.54-.06.18.06v.24l.06.42.18.18.3.12.24.36.06-.18h.12l.12-.24-.18-.72-.18-.3zm-3.9-.24l.06-.3-.06-.54-.12.06v.12l-.06.24.18.42zm1.92-.24l.12-.12v-.54l-.12-.24-.12-.12-.3.06-.24.3v.3l.24.36h.42zm-1.56-.72l.12-.18.3-.42.06-.18-.3-.12-.24-.3-.24-.12-.18.24v.24l.3.36-.06.24.12.06.06.24.06-.06zm10.5 2.34l-.06-.3-.18-.24.24-.3-1.32-1.14-.18-.12-.24-.06-.3-.24-.3-.06-.3-.24-.12-.18-.36-.24-.36-.48-.9-.18.06.12.24.24.06.42.3.24.3.36.12.06.12.12.24.3.48.24.48.36.18.06.18.18.9.42.3.42.42.24zm-13.08-5.52l.12-.18-.42-.3-.12.18-.12.3.24.12.3-.12zm5.46.9h0l-.24-.06-.24-.12-.42-.48-.12-.18-.12-.6-.24-.24-.84-.48-.48-.48-.42-.12-.12.12v.3l.12.18.6.54.66 1.02.6.6.48.06h.24v.06l.06.12.3.12.3-.24-.12-.12zm-381.6-67.86l-1.56-1.62-.72-1.56-1.08-.72-1.2 2.04-.66 1.38 1.32 2.1 1.26 1.86 1.32 1.32 11.1 4.56 2.88-.06-9.24 11.46-4.44.18-2.94 2.7-2.16.06-.9 1.2-2.88 4.32.12 13.92 1.98 3.18.78-.9.78-2.04 3.66-4.62 3.18-2.88 4.98-3.84 3.36-3.06 3.84-5.22 2.82-4.26 2.76-5.58 1.92-4.92 1.5-4.26.78-4.08.66-1.38-.12-2.04.24-2.22-.12-1.02H733l-1.56 1.32-1.74.36-1.5.54-1.08.12-1.92.12-1.14.66-1.68.3-2.88 1.14-3.66.48-3.12.96h-1.68zm-45.12 124.8l-1.74-.36-1.14.48-1.56-.66-1.32-.06-4.8 2.82-3.12 2.82-1.2 2.58-1.02 1.44-1.8.3-.72 1.8-.36 1.2-2.16.9-2.64-.18-1.5-1.08-1.38-.48-1.62.9-.9 1.86-1.62 1.14-1.68 1.68-2.4.42-.66-1.38.42-2.28-1.8-3.66-.84-.6-.66 14.16-3 1.92-1.74.3-1.98-.72-1.44-.3-.48-1.62-1.26-1.08-1.62 1.92 2.1 4.92v.06l1.5 3.18 1.92 3.6-.12 2.88-1.02.72.84 2.52-.12 2.28.36 1.02.18-.54 1.26 1.74 1.08.06 1.26 1.38 1.44-.12 2.1-1.44 2.76-.6 3.36-1.5 1.32.18 1.98-.48 3.42.72 1.62-.72 1.92.6.48-1.08 1.62-.18 3.48-1.5 2.58-1.74 2.46-2.28 4.02-3.9 2.04-2.76 1.08-1.92 1.5-1.98.72-.54 2.34-1.92.96-1.74.66-3.12 1.02-2.82h-2.46l-.78 1.68-1.98.42-1.8-2.1.06-1.32.96-1.44.42-1.08.96-.3 1.62.72-.24-1.38.84-4.26-1.98-8.1zm-12.06 31.68l-1.2.36-2.22-2.94 1.92-2.4 1.86-1.5 1.56-.78 1.38 1.2 1.02 1.14-1.14 1.86-.66 1.26-1.86.6-.66 1.2zm305.52-260.88l3.72 3.3-2.04.66 3.12 4.08.66 2.88 1.26 2.1 2.7-.3 1.92-1.62 2.52-.72.3-2.16-2.04-4.5-1.98-2.52-4.92-4.56.06.96-1.26.24-2.1.18-.42 1.74-1.44-.12-.06.36zM676.6 293.22l-.42-1.32-1.74-1.5-.48-2.76.3-2.82-1.56-.3-.18.9-2.04.18.84 1.08.36 2.34-1.8 2.1-1.62 2.7-1.68.42-2.88-2.22-1.26.78-.3 1.14-1.74.72-.12.78h-3.3l-.48-.78-2.46-.18-1.2.66-.9-.3-1.8-2.22-.6-1.08-2.4.54-.9 1.74-.78 3.42-1.14.72-1.02.42 2.28 1.5 1.86 1.56.06 1.2 2.28 2.04 1.44 1.62.9 2.28 2.52 1.5.54 1.26 2.1 3.12 1.5.48.9-.66 1.56.24 1.86-.78.84 1.62 3 2.52 1.38-1.02 2.1.84 2.7-.9 2.4.06 2.04-1.8 2.04-2.28 2.28-2.52-2.1-4.14-1.56-.9-.6-1.5-1.74-1.86-2.04-.3 1.08-2.16 1.8-.06.48-1.2-.12-3-.48-.06v-1.86z"/><path d="M568 183.42v-.12h-.3l-.18-.24-.12.24v.12h.3l.24.06.06-.06zm-.48-.96h.18l.36-.42v-.18l-.18-.12-.66.12-.12.18v.18l-.18.06-.06.24.06.12.48.06.12-.24zM557.2 165.6l-4.92-.12-2.52.18-3.24-.6h-4.08l-3.72-.66-4.44 2.7 1.2 1.56-.24 2.64 1.14-.96 1.26-.54.72 1.86h1.8l.54-.48 1.8.12.78 1.86-1.44 1.02-.12 2.94-.54.54-.18 1.8-1.32.3 1.2 2.28-.96 2.58 1.08 1.14-.48 1.02-1.2 1.5.24 1.26 2.88.6.84 2.22 1.2 1.32 1.5.36 1.26-1.5 1.98-1.38 3 .06h4.02l2.28-3 2.34-.78.72-2.52 1.8-1.74-1.2-2.22 1.2-3.06 1.86-2.1.3-1.26 3.96-.78 2.88-2.52-.18-2.1-3.6.48-3.42-1.68-1.14.78-5.64-1.68-1.2-1.44zm15.6 13.56l.06-.18.06-.12.06-.06-.12-.12v-.06l.12-.12-.12-.06-.78.24-.42.24-1.26.9v.18l.06.12h.24l.12.24.24-.24.18-.06.18.06.18.12.06.36.06.12.36.06.54.24.24-.12.3-.18.12-.36.36-.6.18-.24-.06-.24-.36-.12-.3.12-.3-.12zm3.6-.18l.06-.24v-.06l-.3-.42-.54-.18-.6.06-.06.06v.24l.06.06.36.06.96.42h.06zm-71.64 46.14l-.12-.12-.42.3h-.36l.12.24.42.24.36-.66zm8.1-1.26v-.06h-.06l-.06.06-.78-.06-.12.36-.3.24v.42l.3.42.18.06.3.06.42-.24.12-.24.06-.48-.06-.24v-.3zm-5.82.48l.3-.24v-.12l-.06-.18-.3-.18h-.12l-.12.12-.12.24.18.3.12.06h.12zm2.82-1.38l.72-.6v-.18l-.6.06-.66.6-.18.06-.6.06h-.3l-.24.12.12.18.24.6.42.54.36-.12.18-.12.24-.36.3-.84zm6.96.78l.9-.3.18-.6.18-.66v-.42l-.12-.18h-.3l-.18.12-.06.36-.42.78-.3.72-.42.36-.42.12.06.06.42.06.48-.42zm-11.82-1.2l.3-.3.06-.18-.06-.3.12-.12-.06-.24-.18-.24h-.42l-.24.36.36.72.06.3h.06zm13.44-1.62l.54-.18.3-.18.06-.54.12-.18-.12-.18-.12.12-.12.24-.36.12-.48.24-.12.18-.12.54.24.06.18-.24zm317.88 86.7l1.38-1.08.36-3.96-1.8-3.96-1.74-2.7-2.46-2.1-1.14 6.18.84 5.46 1.68 3.06 2.88-.9zM685.48 269.1l.24-2.52.96-1.2 2.4-.6 1.56-2.16-1.86-1.44-1.32-.96-1.5-4.56-.66-3.9.66-.72-1.26-3.72h-39.18l.3 7.62h-3.78v1.62l.66 15.12-2.88-.24-1.44 2.82-.84 2.34.72.9-1.08 1.14.42 1.62-.84 1.56-.3 1.44 1.2-.24.72 1.5.06 2.22 1.26 1.08v.96l.42 1.62 1.98 2.4v1.56l-.48 1.56.18 1.2 1.2 1.08.3.18 1.02-.42 1.14-.72.78-3.42.9-1.74 2.4-.54.6 1.08 1.8 2.22.9.3 1.2-.66 2.46.18.48.78h3.3l.12-.78 1.74-.72.3-1.14 1.26-.78 2.88 2.22 1.68-.42 1.62-2.7 1.8-2.1-.36-2.34-.84-1.08 2.04-.18.18-.9 1.56.3-.3 2.82.48 2.76 1.74 1.5.42 1.32v1.86l.48.06v-.42l.84-4.02 1.56-1.08.3-1.56 1.38-2.88 1.92-1.92 1.26-3.72.42-3.3-.42-1.5 1.14-5.64zM377.8 308.28l-2.76.3-.36.66-4.02-.72-.6 3.42-2.1.96.18.9-.66 1.98 1.44 2.76 1.08.06.42 2.1 1.98 3.36 1.86.3.3-.78-.54-.78.3-1.08 1.38.36 1.62-.42 1.92.84.84-1.62.36-1.74.6-1.68-1.26-2.22-.24-2.64 1.86-3.3-3.6-1.02zm289.5 121.68l-1.62-.72-.96.3-.42 1.08-.96 1.44-.06 1.32 1.8 2.1 1.98-.42.78-1.68-.18-1.68-.36-1.74zm-43.68-345.3l-1.14-1.32-1.02-5.04-4.32-2.22-3.54-1.62-1.5.18v2.1l-4.74-.54-.36 1.86-2.4-.06-1.32 2.34-2.04 3.66-3.42 4.74 1.08 1.14-.78 1.32-2.58-.06-1.38 3.18.6 4.56 1.86 1.74-.54 4.14-2.04 2.4-1.02 1.98 2.52 5.04 2.64 4.02 1.2 3.42 3.18-.18 1.32-2.82 3.42.3 1.2-3.3.36-6 2.76-.78 1.98-3.96-2.88-1.98-2.16-2.4 1.26-4.86 4.62-2.94 3.66-2.7-.72-2.1 2.04-2.34 4.2-.9zm-32.04 65.7l-3.24-1.14-.6.84h-2.52l-.78.6-1.38-.36.12.96-2.1 2.1v1.68l1.44-.54 1.08 1.62 1.32.78 1.44-.18 1.62-1.26.54.6 1.44-.12.54-1.5 2.28.48 1.26-.66.18-1.5-1.56-.12-1.38-.66.42-.96-.12-.66zm95.52 53.58l6.6-4.02.54-4.68-.72-2.82 1.62-.96 1.26-2.46-3.54.66-1.68-.12-3.42 1.5h-2.58l-1.8-.72-3.3 1.08-1.14-.78.06 2.16-.72.9-.72.84-.6 1.56.66 3 1.44.18.72 1.5-1.56 1.44-.54 2.1.18 1.56-.36.6h.06l3.78 1.5 5.76-4.02z"/><path d="M962.38 244.32l.72-6.12.06-2.34-1.74-1.14-1.98 2.88-1.14 3.78.9 2.82 2.4 3.24.78-3.12zm-178.92-66.9l-1.26.12-.78-1.08.12-1.74-3.84.9-.3 2.4-.9 2.1-2.64-.18-.36 1.68 2.52.96 1.44 2.82-.78 3.96 1.08.48 1.98-1.26 1.26.78.54-1.8 1.92.06.36-.54-.12-1.56 1.02-1.38 1.92.9v1.2l.96.18.6 3.24 1.56 1.26.9-.78 1.26-.42 1.5-1.74 2.28.3h3.24l-1.08-2.22-.36-1.5-2.1-.84-.96.36-1.8-3.54-5.7.54-4.26-1.2-3.24.3-.36-2.22 3.54.66.84-1.2zm-116.7 157.74l-1.2.48 1.38 2.16-.24 2.22-.96.48.18 1.5.72.9v1.2l-.84.84-1.32 1.98-1.26 1.38-.36.06-.18 1.62.66.54-.12 1.62.6 1.56-.78 1.44 2.7 2.58.18 2.34 1.62 3.9.18.12 1.32.66 2.1.66 1.92 1.14 3.24.72.66 1.02.24-.72 1.68 2.04.18 4.02 1.08 1.44v.06l1.26-.18 4.02 1.08.84-.48 2.34-.06 1.26-1.14 1.98.06 3.72-1.5 2.76-2.22-1.2-.84-1.32-3.78-1.08-2.34.24-1.86-.18-1.14 1.02-2.34-.12-.96-2.1-1.38-.18-2.16 1.68-4.74-4.8-3.78-.24-2.22-12.12-7.8-1.68 1.68-1.14 1.74 1.32 1.32-1.92.96-.42-.48-1.92.24-1.5.84-.96-1.44.66-2.7.12-2.28-3.72-.06zm247.86-58.32l.9-1.74-.3-3.24-3.12-3.3-.78-3.78-2.94-3.12-2.58-.24-.48 1.32-1.92.12-1.08-.72-3.18 2.28-.6-3.42.24-4.02-2.28-.18-.54-2.28-1.56-1.14-1.8.84-1.68 1.68-2.34.18-.9 4.14-1.32.66 2.1 3.36 2.46 2.76 1.74 2.52-.84 3.36-1.02.66 1.02 1.92 2.52 3.06.6 2.1.12 1.8 1.68 3.48-1.56 3.54-1.32 3.96-.78 3.66-.18 2.34.72 2.16.42-2.28 1.74 1.86 1.92 2.1.66 1.92 1.44 1.44.54-.66 2.82 1.68.36 1.98 2.22-.48 1.02-1.56-1.86-1.98-2.04-.48-1.98-2.16-.84-3.3-1.56-3.48-2.22-.12-.42-2.76.84-3.36 1.32-5.58-.12-4.2 2.94-.06-.18 3 2.82-.06 3.18 1.74-1.26-4.62 1.8-3.12 4.26-.78 3.18.6zm68.46 90.3l2.94-1.08 3.6-1.68 1.32-1.02-1.2-.48-1.08.48-2.4.12-2.94.84-.48.9.3.78-.06 1.14zm-417.06-77.82l-2.94-.06-.24 1.14 1.44 1.98-.06 2.76.36 3.06.84 1.38-.72 3.42.24 1.92.9 2.4.72 1.32 2.76-.78-.84-2.64.12-8.76-.66-.78-.12-1.86-1.2-1.38-1.02-1.14.42-1.98zm-581.04 123.3h0l-.12.18v.12l.24.24-.12-.54zm-.96-.54h-.12.12l-.24-.18h-.24l-.12-.06v-.12l-.12.18.12.18.54.24.18.12.12-.36v-.12l-.18.06v.06h-.06zm1.5-9.6l.06-.12v-.12l-.18-.06h-.06l-.18.3.06.06.18.12h.06l.06-.18zm372.72-109.86l.06-.12v-.36l.12-.24-.12-.24-.06-.36.06-.3v-.42l.12-.18.3-.48h-.54l-.36.12-.66.06-.3.12-.42.06-.24.12.06.06.3.12.12.12.06.12.06.24-.18 1.02-.06.06-.36.06-.12.18-.84.48.48-.06.54.06 1.44-.06.54-.18zm1.08-4.02l.72-.3.06-.24h-.12l-.48.18-.36.3v.12l.18-.06z"/><path d="M599.8 204.84l-1.2-.6-.9-1.8-1.68-.06-.66-2.1 2.04-1.92.3-3.36-1.14-.96-.06-1.8 1.5-1.92-.24-.78-2.64 1.44.06-1.98-2.22-.42-3.36 1.56-.6 1.98.6 3.72-.66 3.18-1.92 2.16.36 2.88 2.7 2.28v.9l2.04 1.56 1.56 6.78 1.56-.84.24-1.62-.42-1.56 2.22-1.5.9-1.2 1.56-1.08.06-2.94zm77.16-31.5l-5.82-2.64-5.1.12-3.42 1.02-3.36 2.4-5.94-.48-.96 2.88-4.74.12-3.06 3.66 2.16 1.8-1.2 3 2.52 2.16 2.22 3.84 3.48-.06 3.24 2.1 2.16-.48.54-1.62 3.42.12 2.76 2.1 4.8-.42 1.86-2.22 2.76.9 1.92-.36-1.02 1.44 1.38 1.8.72-.84.72-.9-.06-2.16 1.14.78 3.3-1.08 1.8.72h2.58l3.42-1.5 1.68.12 3.54-.66 1.26-.6 3.72.54 1.26.96 1.38-.66-2.22-3.12.42-1.2-1.74-4.38 1.98-1.08-1.44-1.14-2.52-.9v-1.86l-.78-1.32-3.36-1.8-3.24.18-3.3 1.92-2.7-.36-3.48.6-4.68-1.44zm-29.76 2.4l1.2-1.14 3.66-.24.42-.9-2.82-1.2-.54-1.44-2.7-.48-3 1.2 1.62.96-.72 2.34-.66.42.06.78 1.14 1.74 2.34-2.04zm125.16 12.78l-.48-2.4-4.62-1.62-3.72-1.92-2.52-1.8-4.2-2.64-2.58-3.84-1.2-.72-3.3.18-1.38-.78-1.14-2.94-4.68-1.98-1.98 2.16-2.28 1.32.96 1.86-3.48.06-1.5.18-2.94-2.94-2.28-1.02-3.3.78-1.08 1.2 1.5 2.4-.3-2.7 2.22-.96 1.44 2.16 2.76 2.22-2.4 1.2-3.18-.9.06 3.12 2.1.24-.24 2.64 2.7 1.26.42 4.08 1.08 2.7 2.64-.72 1.8-2.22 2.1.12 1.26-.72 2.28.36 3.9 1.98 2.58.42 4.38 3.42 2.34.12.96 3.3 3.54 1.44 2.34-.48.24-1.8 2.4-.54 1.5-1.2-.06-3.12 2.46-.72.18-1.38 1.74 1.02.96.12zm-448.14 59.34l-.06.24v.12l.12.06.36-.06.06-.06.12-.06v-.06l-.24.06-.36-.24zm2.16.36l.12-.12-.12-.12-.42-.12-.12.06v.18h.36l.18.12zm-.66-.3l-.06-.06-.06-.36h-.3v.12l.06.12h.06l.06.12.18.12.06-.06zm351.84 67.14l-2.04 1.8-2.4-.06-2.7.9-2.1-.84-1.38 1.02-.18 4.5 1.38.48-1.08 1.38-1.32 1.02-1.26 1.98-.72 1.8-.18 3.06-.78 1.44-.06 2.88.84.36 1.98-1.14 1.2-.48 3.72.06-.18-1.5 1.56-2.22 2.1-.54 1.44-.9 1.74.72.18.3v-.18l.96-1.56 1.62-2.52 1.26-2.82-1.56-4.38-.42-1.92-1.62-2.64zM660.1 132.6l-2.88.3-.9-.18-.6.84-1.08-.12-2.46.18-.72.84.12 1.86-1.2-.36-2.58.18-.9-.9-.96.66-1.2-.54-2.28-.06-3.36-.9-3-.3-2.22.12-1.44.96-1.32.18 1.86 3.18-.18 1.08-1.38.42-2.28 3.06.96 1.68-.66-.24-.66 1.02-.42 1.5 1.74 1.02.36.96 1.14-.78 1.92.42h1.92l1.44.9.96-.54 2.16-.36.6-.9h1.26l.66-.54 1.92-.36 2.34 1.14 1.2.18 1.5.96v1.26l1.14.66.66 1.56 1.2.9-.12.6.6.36-.72.3-1.8-.12-.36-.54-.6.3.3.66-.66 1.2-.3 1.26-.72.42 1.44.66 1.32-.6 1.44.66 1.98-2.76.78-2.04 2.7-.48.42 1.44 4.8.9 1.02.84-2.7 1.26-.42.72 3.48 1.08-.36 1.74 1.8.78 3.78-2.16 3.18-.66.36-1.32-3.06.24-1.62-.9-.6-2.34 2.34-1.38 2.76-.18 1.8-1.2 2.34-.3-.24-1.68 1.32-1.02 2.82-.3.18-1.26-1.08-2.04.78-1.92-.24-1.14-4.56-1.2-1.74.06-2.16-1.74-2.1.6-3.96-1.32-.12-.72-1.32-1.62-2.4-.12-.42-1.14.54-.78-2.28-2.04zm87.24 100.56l-.78-1.32-1.8 2.34-2.22 2.46-1.98 2.58-1.98-.12-2.76-.12-2.52.6-.18-1.02-.6.18.24.9 1.56 3.84 10.08 1.92.6-.78-.06-1.56.84-1.56-.18-1.56 1.44-.78-.66-.48.06-2.52h1.68l-.78-3zM547 124.5l-2.94-2.22-2.34.18.48 1.92-.66 1.92 1.74-.06 2.1.78 1.62-2.52zm7.8-14.58l-3.3.3-2.16-.24-2.22 2.88-1.14 3.66 1.32 1.8.06 3.48 1.56-1.68.84.96-1.02 1.62.6.96 3.42.66h.06l1.86 2.28-.48 2.1-4.26-.36-.6 2.4 1.56 1.98-3.06 1.14.78 1.44 4.5.6-2.58.78-4.38 3.9 1.5.72 2.1-1.38 2.7.42 1.98-1.74 1.32.72 4.98-1.02 3.9.06 2.58-1.98-1.14-1.86 1.44-1.08.3-2.34-3.48-.72-.78-1.38-1.74-4.14-1.92-.6-2.46-4.26-.24-.36-2.88-.24 2.52-3.18.78-2.94h-3l-2.82.48 3-3.84z"/><path d="M347.74 263.34l-.42.12-.06.24h.66l.42-.18h-.36l-.24-.18zm.54-2.1l-.3-.06-.12.12.18.06.24-.12zm-.66.06l-.12-.12-.18-.06-.24.06.3.18.24-.06zm44.88 198.9l-1.26-2.22 1.14-1.8-2.28-2.58-2.88-2.1-3.72-2.46-1.14.12-3.72-2.94-2.04.42-.3 3.06-.18 3.9.66 3.78-.54.84.24 2.52 2.34 2.1 2.16-.12 3.24 1.62 1.62-.36 2.52.72 3.18-2.1.96-2.4zm388.38-290.34l-1.5.72-3.24 2.58-.54 2.7h-1.14l-1.38-1.8-3.96-.12-1.56-3-1.5-.06-.9-3.72-4.5-2.7-5.16.3-3.42.54-3.9-3.3-2.88-1.38-5.46-2.7-.66-.3-7.14 2.16 3.72 13.68 3.48-.06-.96-1.86 2.28-1.32 1.98-2.16 4.68 1.98 1.14 2.94 1.38.78 3.3-.18 1.2.72 2.58 3.84 4.2 2.64 2.52 1.8 3.72 1.92 4.62 1.62.48 2.4h1.74l2.58.84.78-3.96-1.44-2.82-2.52-.96.36-1.68 2.64.18.9-2.1.3-2.4 3.84-.9-.12 1.74.78 1.08 1.26-.12 2.46.36 3.12-2.7-4.26-1.98-1.92.96-2.76-1.38 1.86-2.46-1.08-.36zm341.28 224.28l-1.62-2.16-.36 1.02.78 1.68 1.2-.54zm-1.2-5.82l-1.38-1.2-.54 2.94.3 1.08.72-.24.78.48.12-3.06zM919.96 249l-3.54-.96-1.8-1.56.12-2.22-3.12-.66-1.8-1.44-2.46 2.04-3.18.42h-2.58l-1.62.9 2.4 3.06 2.04 3.42 4.08.06 1.8 3.3-1.98 1.02-.78 1.38 4.38 2.28 3.42 4.5 2.58 3.36 2.88 2.64 1.2 2.7-.12 3.84 1.08 2.52.06 4.62-5.34 2.94 1.68 2.28-3.48.3-2.82 1.5 2.7 2.22-.78 2.58 1.38 2.4 3.96-3.54 2.46-3.18 3.66-2.46 2.58-2.52-.24-6.72-2.4-7.02-2.46-3.06-3.36-2.4-3.84-4.98-3.18-4.02.3-2.64 2.22-3.6 3.9-3.3zm-385.2-23.28h-.48l.06 2.04-2.04.12-1.08.9h-1.5l-1.14-.54-2.76.42-1.14 3-1.02.24-1.68 4.86-4.68 4.08-1.2 5.28-1.38 1.74-.42 1.38-7.44.3h-.06l-.18 1.62.72-1.32 12.96.06-.54-5.52.84-1.98 3.12-.3.12-9.78 10.74.18.12-5.82.06-.72v-.24zm205.14 42l-1.26-2.64-3.12-6.3-9.42 1.44-3 1.74-2.1 4.02-1.5.6-.96-1.26-1.26.18-3.24-.36-.6-.42-3.84.12-.9.36-1.44-1.02-.72 1.86.42 1.62-1.38 1.26.24 1.62-.36.78.42 1.74-.66.18 1.02 1.56.78 2.82.6 1.14v2.04l.96 2.28 2.34.18 1.08-.54 1.62.12.48-1.02.9-.24.66-1.02.84-.24 2.82-.18 2.1-.72 1.86-1.62 1.02.24 1.44-.18 2.82-2.7 5.28-1.8 3.18-1.62v-1.26l.54-1.74 2.34-1.02zm-73.38 96.3l-1.14-.3.24-.78-.6-.18-4.5.66-.96.42-.96 2.46.72 1.68-.72 4.5-.48 3.84.84.66 2.34 1.5.9-.72.18 4.14h-2.58l-1.26-2.1-1.2-1.68-2.58-.48-.72-2.04-2.04 1.2-2.7-.54-1.08-1.68-2.1-.36-1.56.06-.18-1.2-1.14-.06.3 1.2-.42 1.8.54 1.8-.54 1.44.3 1.32-6.96-.06-.48 12.18 2.16 3.12 2.1 2.4 2.76-.9 2.16.24 1.26.84v.3l.6.3 3.72.42 1.02.42 1.14-.06 1.92-2.46 3.06-3.18 1.2-.3.42-1.32 1.98-1.5 2.52-.54-.18-2.7 10.26-3.12-1.74-1.02 1.14-3.54 1.08-1.32-.54-3.18.72-3.06.6-1.08-.72-3.24-1.56-1.68-1.92-1.14-2.1-.66-1.32-.66-.18-.12.3.66-.6.24-.72-.84z"/><path d="M665.92 416.22l3.72-4.32.96-2.76.54-.36.48-2.22-.48-1.14.3-2.82.78-2.64.18-4.86-1.68-1.2-1.56-.3-.66-.96-1.56-.78-2.76.06-.18-1.44-2.52.54-1.98 1.5-.42 1.32-1.2.3-3.06 3.18-1.92 2.46-1.14.06-1.02-.42-3.72-.42 1.14 3.06.66.66.96 2.22 3.6 4.2 1.38.42-.06 1.32.9 2.46 2.52.54 2.04 1.74 1.32.06 1.56.66 1.14-.48 1.74.36zm-287.04 124.2l.54-1.8-4.38-.9-4.62-2.16-2.58-2.76-1.8-1.68 3.54 8.1h3l1.74.12 1.98 1.26 2.58-.18zm-30.24-124.86l-4.44-.9-2.4 3.42.54.96-.66 3.96-3.36 1.92.96 6.36-.54 1.2 1.2 1.5-1.92 2.4-1.56 3.54-.54 3.48 1.02 3.72-1.26 3.9 2.94 6.54.96.72.78 3.54-.96 3.72.84 3.24-1.74 2.58.9 3.54 1.98 3.78-1.5 1.44.18 3.42.42 3.84 1.98 4.56-.96.72 2.16 4.26 1.86 1.38-.48 1.56 1.68.78.78 1.38-1.08.66 1.08 2.22.66 4.92-.42 3.18 1.08 1.92-.06 2.34-1.62 1.62 1.86 3.96 1.56 1.32 1.86-.24 1.08 2.76 2.1 2.16 7.2.48 2.88.54 1.32.24-2.82-2.16-2.46-3.78.54-1.74 2.1-1.5.3-4.32 2.82-2.1-.12-3.36-3.12-.78-3.84-2.7-.06-2.82 1.74-1.86 2.82-.06.12-1.98-.72-3.66 1.74-2.34 2.46-1.14-1.5-1.92-1.32 1.2-2.4-1.14-1.5-3.72.9-.96 3.36 1.38 3-.54 1.5-1.32-1.08-1.86-.06-2.88-1.2-2.28 3.48.36 6.12-.78 4.14-2.04 1.98-4.98-.18-1.92-2.34-1.68-.06-2.7-4.68-3.3-.18-1.98-.24-2.52.54-.84-.66-3.78.18-3.9.3-3.06 3.54-5.16 3.18-3.72 1.98-1.56 2.52-2.1-.3-3.06-1.86-2.22-1.56.72-.18 3.42-2.58 2.88-2.52.66-3.72-.6-3.42-1.08 2.52-5.76-.66-1.68-3.54-1.5-4.32-2.82-2.76-.6-6.72-6.24-.6-.78-3.78-.18-.96 3.06-2.22-2.76z"/><path d="M370.42 408.3l-.18-1.14-3.24-1.98-3.06-.06-5.7 1.14-1.26 3.36.12 2.04-.9 4.56 6.72 6.24 2.76.6 4.32 2.82 3.54 1.5.66 1.68-2.52 5.76 3.42 1.08 3.72.6 2.52-.66 2.58-2.88.18-3.42.42-2.16.18-2.28-.18-2.1-1.26-.72-1.2.66-1.2-.18-.54-1.5-.6-3.48-.72-1.14-2.34-1.02-1.26.72-3.6-.72-.24-5.16-1.14-2.16z"/><path d="M370.42 408.3l.96-.78-.48-2.16.78-1.68.3-3-.96-2.4-1.92-1.02-.48-1.56.36-2.16-6.42-.18-1.62-4.44.96-.06-.18-1.68-.72-1.08-.3-2.22-1.98-1.14-2.1.06-1.5-1.14-2.28-.72-1.44-1.44-3.78-.6-3.84-3.42.18-2.58-.54-1.5.24-2.82-4.38.66-1.68 1.38-2.88 1.56-.66 1.14-1.74.12-2.52-.36 3.3 6.18-.66 1.26.06 2.7.18 3.24-1.14 1.92.72 1.44-.66 1.26 1.68 3.18-1.68 4.14 1.86 2.58.72 2.76 1.92 1.62-.66 3.72 2.22 4.26 1.86 5.28 2.28-.54 2.4-3.42 4.44.9 2.22 2.76.96-3.06 3.78.18.6.78.9-4.56-.12-2.04 1.26-3.36 5.7-1.14 3.06.06 3.24 1.98.18 1.14z"/><path d="M372.4 324.06l-.84.12-1.86-.3-1.08 1.02-1.56.66-1.02.12-.42.78-1.62-.18-2.1-1.8-.18-1.74-.84-1.98.6-3.24.96-1.32-.72-1.8-1.14-.54.48-1.68-.78-.9-1.74.18.42 1.08-1.26 1.44-3.84 1.44-2.4.6-1.02.9-2.64-.96-2.52-.48-.6.36 1.44.96-.18 2.58.42 2.4 2.88.3.18.84-2.46 1.08-.42 1.62-1.38.6-2.52.9-.66 1.14-2.64.3-1.8-2.04-.66.48-.6-2.28-.96-1.2-1.14 1.32-6.54-.06v2.34l1.98.42-.12 1.44-.66-.36-1.92.6v2.76l1.5 1.44.54 2.16-.06 1.68-1.32 10.44-3.06-.18-.42.6-2.76.72-3.72 2.58-.24 1.8-.78 1.32.42 2.04-1.98 1.14.06 1.62-.9.66 1.56 3.48 1.98 2.28-.6 1.68 2.22.18 1.38 2.04 2.94.12 2.64-2.28.12 5.82 1.56.42 1.8-.66 2.52.36 1.74-.12.66-1.14 2.88-1.56 1.68-1.38 4.38-.66-.24 2.82.54 1.5-.18 2.58 3.84 3.42 3.78.6 1.44 1.44 2.28.72 1.5 1.14 2.1-.06 1.98 1.14.3 2.22.72 1.08.18 1.68-.96.06 1.62 4.44 6.42.18-.36 2.16.48 1.56 1.92 1.02.96 2.4-.3 3-.78 1.68.48 2.16-.96.78 1.14 2.16.24 5.16 3.6.72 1.26-.72 2.34 1.02.72 1.14.6 3.48.54 1.5 1.2.18 1.2-.66 1.26.72.18 2.1-.18 2.28-.42 2.16 1.56-.72 1.86 2.22.3 3.06-2.52 2.1-1.98 1.56-3.18 3.72-3.54 5.16 2.04-.42 3.72 2.94 1.14-.12 3.72 2.46 2.88 2.1 2.28 2.58-1.14 1.8 1.26 2.22 1.74-2.22.9-3.6 1.92-1.8 2.34-3 2.7-6.72 2.04-2.1.48-1.86.18-3.84-.78-2.1.18-2.88 2.46-3.78 3.6-3.06 3.6-1.08 2.16-1.74 5.1-1.44h3.54l.66-2.28 2.52-1.68.36-3.9 3.06-4.98.3-5.1.96-1.56.18-2.46.66-5.94-.6-7.14.84-2.82.84-.06 2.34-3.3 1.98-4.32 4.62-5.28 1.62-2.52 1.2-6.3-.6-2.34-1.2-4.86-1.26-1.2-2.88-.12-2.58-1.14-4.38-4.26-5.04-3.18-5.04.18-6.54-2.04-3.9 1.2.48-2.1-1.62-2.28-5.64-2.28-4.26-1.38-2.52 2.46-.18-3.78-5.94-.6-1.02-1.2 2.52-3.12-.06-2.64-1.8-.6-1.8-6.72-.78-2.1-1.14.18-2.1 3.48-1.08 2.82-1.26 1.44-1.62.3-.48-1.08-.72-.18-1.08 1.08-1.44-.78-1.92-.84-1.62.42-1.38-.36-.3 1.08.54.78-.3.78-1.86-.3z"/><path d="M323.98 286.32l.72-1.26-.78-1.02-1.2-.24-1.74 1.86-1.38.84-2.76 1.92-2.58-.3-.3.78-2.16.06-1.98 1.8-.84 3.24-.06 1.26-1.44.42-2.64 2.64-1.74-.12-.42.54.66 2.28-.66 1.14-1.08-.3-.54 1.86 1.32 2.04.36 3.24-.72.96.66 3.54-.72 2.22 1.2.9-1.32 1.98-1.5 2.4-1.68.24-.84 1.38.12 1.92-1.26.3.48 1.2 3.36 2.16.6-.06.84 1.62 2.82.54.96-.6 1.68 1.26 1.44.9.9-.36 2.22 1.8 1.08 1.8 1.62 1.02 2.04 4.02 2.52.48 1.8-1.02 1.26.66 1.98-.36 2.64 1.8-2.1 3.9 1.02.06 1.74 2.04 1.32-10.44.06-1.68-.54-2.16-1.5-1.44v-2.76l1.92-.6.66.36.12-1.44-1.98-.42v-2.34l6.54.06 1.14-1.32.96 1.2.6 2.28.66-.48-1.02-3.84-.84-1.32-1.2-.84 1.74-1.86-.12-.9-.9-1.14-.6-2.52.3-2.76.78-1.26.72-2.04-1.2-.66-1.92.42-2.4-.18-1.38.42-2.28-3.3-1.92-.48-4.32.36-.78-1.32-.78-.36-.12-.78.48-1.44-.24-1.5-.66-.84-.36-1.74-1.74-.3 1.08-2.22.54-2.7 1.08-1.44 1.32-1.08.96-1.92 2.22-.66z"/><path d="M362.2 299.34l-1.32-.9-1.74.12-.42-3.06-2.46-1.92-2.64-.24-1.08-1.8 2.88-1.14-4.02.06-4.14.24-.12.96-1.92 1.14-2.52-.42-1.86-1.74-3.6.42-3-.06-.06-1.26-2.1-2.1-2.34-.06-1.02-2.7-1.26 1.2.36 1.8-4.26 1.56v2.88l.96 1.32-.9 2.76-1.44.24-1.14-3 1.62-2.22.18-1.98-1.02-1.74 1.98-.48.18-.9-2.22.66-.96 1.92-1.32 1.08-1.08 1.44-.54 2.7-1.08 2.22 1.74.3.36 1.74.66.84.24 1.5-.48 1.44.12.78.78.36.78 1.32 4.32-.36 1.92.48 2.28 3.3 1.38-.42 2.4.18 1.92-.42 1.2.66-.72 2.04-.78 1.26-.3 2.76.6 2.52.9 1.14.12.9-1.74 1.86 1.2.84.84 1.32 1.02 3.84 1.8 2.04 2.64-.3.66-1.14 2.52-.9 1.38-.6.42-1.62 2.46-1.08-.18-.84-2.88-.3-.42-2.4.18-2.58-1.44-.96.6-.36 2.52.48 2.64.96 1.02-.9 2.4-.6 3.84-1.44 1.26-1.44-.42-1.08-2.22-2.88.96-1.08v-1.74l2.04-.66.9-.72-1.14-1.38.36-1.38 2.76-2.28zm-61.8-54.96l-2.94-1.26-2.58-.06-2.82-.3-.84.42-2.52.36-1.8.78-1.62.84-.9 1.38-1.86 1.2 1.32.36 1.74-.42.54-.96 1.38-.06 2.64-1.98 3.24.18-1.38.96 1.08.78 4.2.6.9.78 2.94 1.02 1.92-.12.48 2.16 1.02 1.08 2.1.24 1.26 1.02-2.46 2.1 4.74-.36 2.28.3 2.22-.18 2.28-.48.48-.9-2.34-1.56-2.4-.18.36-1.02-1.86-.78h-1.14l-1.8-1.68-2.52-2.4-1.08-.9-3.12.48-1.14-1.44zM47.02 258.42l1.2-.54 1.5-.84.12-.24-.54-1.32-.42-.48-.48-.36-1.14-.66-.24-.06-.24.36v.78l-.72.6-.24.42.24 1.38-.36 1.08.72.54.6-.66zm-.36-5.94l.36-.42-.72-.6-1.08-.36-.42.3v.24l.3.3.36.84 1.2-.3zm-1.8-2.04l-1.56-.12-.36.42 1.74.12.18-.42zm-2.82-.54l-.66-1.26-.18-.24-1.02.54.06.12.24.9 1.08.12.24.06.24-.24zm-4.98-2.52l.18-.9-.78-.06-.6.36-.24.3.96.66.48-.36zm247.26-103.92h-.96l-.78 1.44h-81.54l-.96 3.06-1.44 3.06-1.38.96.66-3.54-3.48-1.26-.84.72-.24 1.74-1.08 3.24-2.52 4.98-4.8 6.72-3.24 3.48-.66 2.82-1.68 3.18-2.34 3.12.6 2.04-1.14 3.12.9 3.24.78 1.32-.48.9.24 5.4 1.5 3.9-.48 2.1.6.6 2.76.42.78 1.02 1.68.18-.06 1.14 1.32.42 1.26 2.22-.18 1.92 3.78-.3 4.2-.42-.6.78 4.26 1.86 6.42 2.64h9l.48-1.56h5.58l.78 1.32 1.26 1.2 1.44 1.68.48 1.98.24 2.1 1.32 1.14 2.4 1.14 2.88-3 2.64-.06 1.86 1.5.96 2.64.6 2.22 1.44 2.16.12 2.7.48 1.8 2.34 1.2 2.16.84 1.26-.12-.36-1.32.24-1.86.6-2.64 1.14-1.68 2.22-1.86 3.6-1.62 3.66-2.82 2.94-.9 2.1-.24 2.1.84 2.94-.48 1.98 2.04 2.28.12 1.44-.72 1.02.54.78-.48-.54-.78.42-1.5-.3-1.02 1.44-.6 2.52-.24 2.82.42 3.72-.48 1.8.9 1.2 1.8.54.18 3.66-1.74 1.14.6 1.8 3.18.48 2.1-1.2 2.52.24 1.5.96 2.94 1.2 3.3 1.08.84.24 1.68 1.56.48 1.02-.48 1.2-2.34.42-1.5.54-2.58-.72-4.44.3-1.62-.9-2.7-.42-3.24.06-2.64 1.08-2.7 2.1-2.28 2.22-1.8 4.14-2.46.78-1.32 1.98-1.38 1.68-.24 2.64-2.28 3.6-1.14 2.76-2.88.54-3.9.06-1.32-.84-.24.9-3.72-1.8-1.26 1.92.6v-2.46l1.14-1.62-.6 3.18 1.2 1.5-1.74 2.64.24.12 2.64-3.06 1.44-1.5.36-1.5-.54-.66-.06-2.1.72.96.66.24-.06.96 3.12-2.94 1.5-2.7-.84-.18 1.26-1.08-.24.48h1.98l4.68-1.14-.66-.72-4.74.72 2.88-1.08 1.86-.18 1.44-.18 2.46-.66 1.44.06 2.28-.6.6-1.02-.66-.84-.12 1.32-1.26-.06-.36-1.98.66-1.98.84-.78 2.34-2.22 3.54-1.08 3.6-1.26 3.78-1.8-.12-1.2-1.26-2.1 1.68-5.1-.9-1.08-2.22.66-.66-1.02-3.3 2.82-1.92 2.94-1.62 1.68-1.5.54-1.02.18-.6.96h-10.2l-1.62.72-4.02 2.52.12.54-.36 1.44-2.76 1.2-2.34-.3-2.4-.12-1.56.42-.24 1.44-3.48 2.22-2.7 1.08-1.74.48-2.22 1.02-2.4.54-1.5-.18-1.62-.78 1.62-1.44 1.2-1.32 2.22-2.04.42-1.5.3-2.1-.96-.42-2.58 1.68-.54-.06.18-.9 2.28-1.5.96-1.68.42-1.68-1.62-1.44-2.22-.78-1.02 1.44-.84.36-1.32 1.86.24-1.26-1.56.9-1.26 1.2-1.56 1.86-.78 1.56.06 2.28-1.08 2.4-1.98 1.8-.84.54-.96.42h-1.08l-.18-.24-.06-1.98.42-.96.42-.9.36-1.8 1.5-2.1 1.74-2.58 2.76-2.82h-.42l-3.24 2.4-.24-.42 1.74-1.38 2.82-2.4 2.22-.3 2.64-.78 2.22.42h.06l2.82-.3-.9-1.5-.72-.12-.84-.18-.24-1.02-3.06.3-3 .84-1.5-1.38-1.5-.48 1.86-1.98-3.18 1.2-2.94 1.26-2.76.9-1.26-1.26-3.3.78.24-.54 2.76-1.56 2.82-1.5 3.54-1.26-3.18-.96-2.64.48-2.28-1.14-2.76-.6-1.92-.24-.6-.6.48-2.04zm-144.36-28.14l4.14-1.68v-1.08l-1.56-.24-2.04.54-3.84 1.26-1.32 1.62.42.96 4.2-1.38zm-23.22-9.84l1.38-1.38-1.74-.3-3.42.6.48.96.96.66 2.34-.54zm.72-13.38l-1.86 1.32.24.3 2.52-.24.18.66 1.02.72 2.94-.72.72-.36-1.98-.48-.96-.9-2.04.36-.78-.66zm74.94-24.12l-2.64-.66-6.12 1.68-1.92-.18-6.6 1.38-2.88.36-4.68 1.5-2.88 1.56-5.16 1.5-4.56.06-3.78 1.74 1.92 1.02.42 1.38-.48 1.62 1.38 1.26-.72 2.1-5.52.12 2.58-1.68h-2.04l-7.86 1.62-5.46 1.38.6 1.98-.72 1.32 2.7.84 4.14-.42 1.08.78 1.74-.78 3.66-.72h1.62L146.68 90l.66.6-1.5 1.56-3.3 1.08-1.5-.3-4.2 1.62-1.08-.54-2.46.24-3.18 1.8-4.56 1.86-3.48 2.04.18 1.44-2.4 1.98.84.84.3 1.62 4.32-.66.24 1.26-1.98 1.26-2.16 2.1h1.68l4.32-1.38-.96 1.74 2.16-1.26-.24 1.8 2.88-1.32.24.66 4.32-1.08-3.72 2.04-3.42 2.7-3.42 1.26-1.38.72-6.18 2.16-2.94 1.44-3.9.42-5.1 1.98-3.96 1.08-4.86 1.68-.24.6 6-1.02 3.6-1.2 4.14-1.2 3.66-1.02 1.68.3 4.86-1.56 2.7-1.68 6.3-1.86 2.34-1.56 3.96-1.08 4.56-1.5 5.34-2.52-.12-1.74 6.66-2.46 4.44-2.34 5.52-1.92-.24.84-4.02 1.08-4.98 3.42-1.92 2.1 3.84-.78 3.66-1.14 3.9-.78 1.74-.18 2.1-2.46 3.78-.72 1.56 1.5 3.6 1.62 4.02-.3 3.42 1.2 1.92.66 1.98 3.66 2.22 1.02 4.26.12 2.46.24-1.62 3.3.96 2.94-1.98 3.12 1.5 1.14.36 1.32 3.06-1.74 1.86-2.22-2.76-2.28.9-4.08.66-2.52-1.02-1.62-.42-1.44.3-1.8-3.84 1.14-4.56 1.98-.12-2.34-.36-1.56-1.62-.96-2.52-.06 21.24-19.44 14.58-12.12-2.1-.42-2.46-.96-3.9.48-1.32-.42-4.26-.3-3.72-.96-2.88.3-2.94-.54 1.2-.72-3.78-.18-1.98.6.3-1.44z"/><path d="M243.64 232.68l-2.16-.84-2.34-1.2-.48-1.8-.12-2.7-1.44-2.16-.6-2.22-.96-2.64-1.86-1.5-2.64.06-2.88 3-2.4-1.14-1.32-1.14-.24-2.1-.48-1.98-1.44-1.68-1.26-1.2-.78-1.32h-5.58l-.48 1.56h-9l-6.42-2.64-4.26-1.86.6-.78-4.2.42-3.78.3.12 3.42.42 3.06.42 2.46.48 2.4 1.56 1.08 1.74 2.7-.6 1.74-1.62 1.38-1.26-.18-.36.3 1.38 2.22 1.74.9.6 1.02.54-.54 1.86 1.74 1.26 1.2.06 2.04-.72 2.82 1.5.96 1.98 1.86 1.74 2.16.42 2.34h.6l1.62-1.38.24-.72-.9-1.68-.96-1.74-1.56-.12.24-2.04-.54-1.8-.6-1.68-.3-3.54-1.56-1.92-.36-1.38-.72-.96v-2.46l-.6.06-.06-1.32-.42-.3-.24-.84-1.62-2.64-.66-1.56.6-2.88.06-1.8 1.08-1.56 1.44 1.02 1.14-.12 1.86 1.5-.54 1.44.24 2.94.9 2.82-.24 1.2 1.02 1.86 1.38 2.04 1.62.3.18 2.64 1.44 1.86 1.5.9-1.08 2.4.42.9 2.46 1.56 1.14 2.4 2.7 2.94 2.28 3.84.78 1.92v1.5l.84 1.74-.18 1.32-.96.96.18 1.08-1.14.42.48 1.86 1.32 2.4 3.18 2.16 1.14 1.74 3.24 1.2 1.8.24.72 1.02 2.52 1.8 3.54 1.8 2.4.54 2.88 1.74 2.4.72 2.22 1.02 1.74-.42 2.88-1.44 1.86-.24 2.64.96 1.56 1.26 3.3 4.14.24-1.14.48-.9-.42-.72 1.98-3.12h4.26l.24-1.26-.48-.24-.3-.84-1.14-.9-1.08-1.26h1.56l.24-2.16h3.12l3.06.06.06-.6.42-.18.54.48 1.5-2.34h.6l.72-.06.72.96 1.2-3 .72-1.62-.54-.66 1.08-2.34 2.1-2.28.36-1.86-.72-.78-2.04.3-2.88-.12-3.6.9-2.4 1.02-.72 1.08-.72 3.24-1.08 2.22-2.34 1.56-2.16.66-2.58.66-2.58.36-3.06 1.08-1.14-1.56-3.36-1.02-1.08-1.92-.42-2.16-1.8-2.82-.24-3-.72-1.86-.3-2.04.66-1.86 1.08-5.16 1.08-2.7 1.86-3.36-1.26.12zm769.38 254.52l-1.8-.3-1.14 1.74-.36 3.24-1.26 2.4-.3 3.18 1.8.12.48.18 3.96-2.58.36 1.02 2.4-2.94 1.92-1.32 2.7-4.38-1.68-.3-2.88.72-2.04.54-2.16-1.32zm30.06-103.38l.3-1.38.06-2.16-.96-1.92.06-1.62-.78-.48.06-2.34-.72-1.92-1.38 1.44-.24 1.08-.9 2.1-1.08 2.04.36 1.26-.72.78-.9 2.88.06 2.22-.42 1.08.18 1.86-1.56 3-.78 2.1-1.02 1.74-1.02 2.04-2.46 1.26-2.94-1.26-.3-1.2-1.5-.96h-.96l-1.98-2.28-1.5-1.32-2.34-1.2-2.34-2.1-.06-1.08 1.5-1.86 1.26-1.92-.18-1.56 1.14-.12 1.5-1.5 1.2-2.04-1.32-1.92-.9.72-1.2-.3-2.1 1.08-1.92-1.2-1.02.42-2.7-.96-1.62-1.62-2.1-.9-1.86.54 2.34 1.26-.18 1.92-2.88.72-1.68-.42-2.16 1.32-1.74 2.22.36.9-1.62 1.02-2.04 3.06.36 2.1-2.04-.36h-2.1l-1.5-2.28-2.22-1.74-1.68.48-1.56.54-.18.96-1.44-.42-.18 1.08-1.8.66-1.02 1.5-2.1 1.86-.84 2.88-1.38-.78-1.32 1.86.9 1.8-1.56.72-.84-3.3-2.88 3.24-.48 2.1-.42 1.5-2.28 1.98-1.2 2.04-2.1 1.68-3.66 1.14-1.86-.12-.9.36-.66.84-2.1.42-2.82 1.44-.84-.48-1.56.3-2.76 1.38-1.92 1.62-2.88 1.26-1.86 2.64.24-2.88-1.86 2.76-.06 2.22-.78 1.92-.9.9-.78 2.22.54 1.14.06 1.2.96 3-.42 1.98-.6-1.5-1.38-1.08.24 3.54-1.02-1.68.06 1.68 1.08 3-.36 3 1.02 1.5-.24 1.14.54 2.46-.78 2.16-.18 2.16.42 3.9-.42 2.22-1.32 2.64-.36 1.38-.9.9-1.74.48-.9 2.22 1.44.72 2.4 2.46h2.16l2.28.18 1.98-1.26 2.04-1.08.84.18 2.7-2.04 2.28-.18 2.46-.42 2.52.72 2.16-.36 2.76-.12 1.8-1.56 1.38-1.98 3.12-.9 4.14-1.92 3 .24 4.14-1.26 4.68-1.38 5.88-.36 2.4 1.86 2.22.12 3.18 2.28-.96.9 1.08 1.44.78 2.76-.96 2.04 1.74 1.56 2.58-3.06 2.58-1.26 4.02-3.3-.96 2.82-2.04 1.92-1.5 2.22-2.64 2.1 3.12-.72 2.82-2.64-.54 2.88-1.92 1.86 2.82.48.78 1.56-.24 1.98-.9 2.94.84 2.4 2.4 1.14 1.68.24 1.44.6 2.1 1.08 4.32-2.82 2.1-.72-1.62 2.04 1.56.66 1.62 1.68 2.82-1.62 2.28-1.5 3.78-1.62 3.6-.12 2.52-1.38.54-1.2 1.8-2.7 2.34-2.88 2.16-1.92 2.64-3.36 1.98-1.86 2.64-3 3.24-1.86 3-3.48 1.86-2.7.84-2.16 2.28-3.42 1.26-1.74 1.5-3.42-.42-3.24 1.02-2.34.66-2.22v-3.06l-1.68-3.06-1.14-1.5-1.74-2.34.42-4.02-.9.6-.96-1.68-1.5.84-.36-4.14-1.32-2.4.6-.9-1.86-1.68-1.92-1.8-3.18-1.98-.54-2.58.78-1.98-.24-3.3-.78-.42-.12-1.92-.12-3.3.66-1.68-1.38-1.5-.84-1.62-2.34 1.44-.72-3z"/><path d="M776.38 45.06l-2.7-2.4-8.16-2.46-5.64-1.26-3.72.54-3.18 1.74 3.48.48 3.96 1.92 4.8 1.02 6.9.78 4.26-.36zm-107.22-4.38l.54-.36-3.42-.54-1.68.42-.78.6-.9-.72-3.12.06-3.72.48 4.62.06-.66.78 2.64.6 2.16-.42.06-.42 1.74-.18 2.52-.36zm120.3 5.94l-.9-1.08-7.5-1.56-1.8-.18-1.32.3.72 3.6 10.8-1.08zm9.12 3.78l-5.52-.42 2.04-.72-4.92-.9-3.66 1.14-.6 1.2.9 1.26-4.14-.06-3.18 1.56-2.58-.66-5.58.3.18.78-5.52.42-2.94 1.44-2.52.12-.72 1.98 3.3 1.56-4.62.42-5.7-.18-3.48.66 2.88 3.24 4.14 2.58-5.76-1.8-4.74.18-3.06 1.2 2.7 2.28-2.94-.6-1.26-3-2.52-1.68-1.08.06 2.16 2.22-2.76 2.1 4.86 2.52.24 3.24 1.74 1.74 2.82.3.24 2.1 2.64 1.86-1.14 1.56.3 1.62-2.22.84-.3 1.2-3.18-.48 2.1-4.68-.3-2.16-4.02-1.98-2.28-4.38-2.22-2.22-2.16-.96.48-2.52-1.74-1.74-6.78-.84-1.26.6.3 2.82-2.58 2.82.72 1.02 2.82 2.46.06 1.56 3.18.3.48.66 3.48 1.74-.6 1.68-11.1-3.66-3.96-1.02-7.68-.96-.72 1.02 3.54 1.86-1.62 2.16-3.84-1.92-3 1.32-4.56.06-1.26 1.14-3.18-.36 1.5-1.98-1.92-.12-7.38 2.76-4.56 1.56.24 2.1-3.6.72-2.4-1.14-.72-1.8 3-.42-2.16-1.8-7.32-1.08 2.58 2.04-.48 1.92 2.82 1.98-.66 2.28-2.76-1.14-2.4-.18-4.8 3.24 2.52 2.46-1.92.84-6.84-2.1-1.26 1.26 1.98 1.44.12 1.62-2.28-.84-3.6-1.02-1.14-3.48-.6-1.56-4.8-2.4 1.74-.42 12.06 2.52 3.84-.9 2.22-1.74-.96-2.16-2.4-1.56-10.56-3.66-6.96-.78-4.56-1.92-2.16 1.08-3.84 1.32-1.92.3.24 2.22 4.32 2.22-1.68 2.46 3.84 3.78-1.02 2.88 2.94 2.46-.54 2.22 4.38 2.34-.54 1.74-1.98 1.98-4.74 4.44 3.18 1.68-2.7 1.92.54.6-1.56 2.04 1.5 3.3-.96 1.14 1.44.84.6 1.68 1.26 2.16 3.12.9.6.84 1.38-.42 2.88.84.6 1.74-.36.96 2.22 2.34 1.32.66-.06.66 2.04.66 1.02.96-.96.78-2.34-.12-.48.36.9 1.2 1.2 2.34 1.08.12.6-.84.9.18 2.88-.3 2.28 2.04-.54.78.42 1.14 2.4.12 1.32 1.62.12.72 3.96 1.32 2.1-.6 2.16 1.74 1.74-.06 4.56 1.2.24 1.14-.78 1.92 1.08 2.04-.18 1.26-2.82.3-1.32 1.02.24 1.68 2.52-.6.24.78-4.08 1.56 1.92 1.44-1.92 3.12-2.04.6 3 2.16 3.72 1.44 4.44 3.06.3-.42 2.7.66 4.62.6 4.5 1.74.66.72 1.74-.6 3.06.78 1.26 1.5 2.1.84.9.12 2.58 2.28 1.44.24.3-.9 1.56-1.5-4.38-4.38-.24-2.46-3.54-3.54 2.1-3.78 2.76-.66.84-2.22-1.68-.6-.12-1.92-2.52-2.46-2.16.12-3.18-2.58 1.02-2.82-1.02-.72 1.26-4.08 3.6 2.16-.42-2.76 4.86-3.96 4.5-.12 11.1 4.02 2.58-1.5 4.56-.12 4.38 1.92.48-1.08 4.14.18.12-1.8-5.64-2.52 2.16-1.74-.9-1.02 2.34-.96-3-2.46.84-1.26 10.08-1.26 1.02-.9 6.48-1.32 1.86-1.5 5.4.78 2.58 3.78 2.58-.9 4.2 1.26.72 1.98 2.64-.24 5.46-3.42-.48 1.14 4.98 2.82 10.86 9.3.66-1.98 4.98 2.16 3.72-.96 1.92.66 2.46 2.16 2.34.72 1.98 1.56 3.6-.54 2.58 2.28 1.02-.3 2.82-.6 3.96-3.24 3.54-1.74 3.18 1.14 3.06.06 2.82 1.74 3 .12 4.74.96 1.44-2.58-2.4-2.16.78-3.84 4.14 1.5 2.88.48 3.96.9 2.22 2.76 5.04 1.56 2.34-.66 3.42-.48 3.24.48 3.9 1.8 2.94 1.86h2.7l4.02.6 2.16-.96 3.48-.6 2.7-2.64 1.98.42 2.34 1.26 3.3-.3 4.38 1.38 2.64-2.34-1.14-1.62-.06-3.9.72-1.2-1.5-1.98-2.22-.9 1.02-1.8 3.06-.66 3.72-.12 5.1 1.08 3.54 1.38 4.62 3.66 2.28 1.62 2.64 2.22 3.66 3.66 5.94 1.14 5.34 2.7 3.6 3.48h4.5l1.56-1.5 4.14-1.08.78 3.36-.24 1.38 1.68 4.08.36 3.6-4.08-.66-1.74 1.32 2.82 3.18 2.28 4.38-1.5.06 1.14 1.86.84.66-.24-1.2 2.4-2.7 3.06 1.8 1.92-.06 2.64-2.16.6-2.22 1.26-4.26 1.14-4.32-.78-2.58.6-5.4-3.12-5.94-3.3-4.38-.78-3.72-2.82-3.06-7.62-4.02-3.36-.24-.18 1.8-3.48-.78-3.42-2.28-4.8-.42 2.94-8.46 2.1-6.9 7.86-1.08 8.94.6 1.5-1.68 4.74.48 2.58 2.58 3.84-.36 5.04-.96-4.62-2.1v-5.88l5.46-1.14 7.26 4.26 2.16-3.84-1.92-2.82 2.82-.3 3.9 4.86-1.44 2.76-.48 3.6.18 4.5-3.42.78 1.68 1.62-.06 2.16 3.84 4.98 15.9 13.32 3.42 2.58.96-3.42-2.7-3.72 3.42-.9-3.24-4.14 3-1.86-2.82-1.56-2.04-3 2.46-.12-5.4-5.16-4.02-.84-1.74-1.44-.66-3.36-1.86-2.34 4.2.48.78-1.5 2.82 1.32 3.66-2.76 6.84 2.4-1.02-1.56 1.2-2.16.9-2.4 1.86-.42 3.9-2.58 5.88.72-.54-.9-2.28-1.38-2.46-.96-5.46-2.76-4.86-1.8 3.66.24 1.2-1.5-19.74-13.14-5.64-1.38-9.42-1.56-4.74.18-9.12-.84 1.08 1.38 5.1 2.04-1.5 1.08-8.52-2.88-4.08.36-5.52-.66-4.2.12-2.34.66-4.32-.96-3.06-2.28-3.9-1.32-5.52-.54-8.82.6-9.66-2.4-4.68-1.8-24.06-2.04-1.26 1.32 5.58 2.88-4.5-.42-.6.9-5.82-.96-3 .84-5.58-1.44 1.8 3.3-5.34-1.26-6-2.46-.24-1.32-3.6-1.98-5.88-1.56h-3.66L847.9 60l2.82 2.34-10.32-.48-2.34-1.38-7.98-.54-3.18.48-.06.78-3.48-1.92-1.38.54-4.32-.72-3.36-.42.66-.9 3.96-1.68 1.38-.9-1.44-1.5-3.3-1.14-6.9-1.38-6.48-.06-1.14.72-2.46-1.44zm-97.32 18.96l-5.94-2.58-1.86-2.58 1.98-2.94 1.68-3 5.16-2.82 5.88-1.44 6.78-1.44.78-.9-2.52-1.14-3.96.36-2.94 1.08-7.02.54-6.06 1.86-4.08 1.62 1.5 1.32-3.96 2.64 2.34.42-3.24 2.58.96 1.68-2.04.66 1.14 1.68 4.74.84 1.32 1.38 8.04.42 1.32-.24zm188.4-14.82l-10.74-1.56-6.12-.12-2.04.54 2.04 2.04 7.44 1.92 2.7-.72 8.52.12-1.8-2.22zm15.12 1.38l-7.02-.78-4.92-.42 1.02.96 6.18 1.2 4.08.24.66-1.2zm-7.5 5.7l-1.5-.84-4.98-1.14-2.46.3-.48 1.2.66.12 5.28.36h3.48zM994.84 69l-3.6-2.16-.84 1.32 2.1.96 2.34-.12zM627.4 125.34l-.36-.9.12-1.02-1.32-.54-3-.66-3.78 1.2-.42 1.56 3.54.42 5.22-.06zm353.82 13.08l-4.32-3.72-3.06-3.6-4.08-3.48-2.94-2.4-.78.48 2.64 1.68-1.14 1.68 4.08 4.98 4.68 3.6 3.84 4.98 1.44 2.76 3.3 4.08 2.28 3.6 2.76 3.12-.06-2.88 3.9 2.28-1.8-2.64-5.7-3.78-2.22-5.4 5.34 1.2-8.16-6.54z"/></svg>